<svg width="110" height="64" viewBox="0 0 110 64" fill="none" xmlns="http://www.w3.org/2000/svg">
<g clip-path="url(#clip0_1_615)">
<path d="M16.1511 35.3991L28.4929 0.141602H32.3021L16.1511 46.1648L0 0.141602H3.80658L16.1511 35.3991Z" fill="#004F95"/>
<path d="M51.4033 41.7442C48.5582 44.6497 45.1431 46.1024 41.1605 46.1024C37.1779 46.1024 33.9808 44.7154 31.1804 41.9386C28.3799 39.1644 26.9797 35.8675 26.9797 32.0504C26.9797 28.2333 28.3799 24.8313 31.1804 22.0992C33.9808 19.367 37.3066 18.001 41.1605 18.001C45.0144 18.001 48.5582 19.4537 51.4033 22.3592L55.3413 18.1954V45.8397L51.4033 41.7416V41.7442ZM41.1605 21.579C38.1841 21.579 35.6779 22.5878 33.6419 24.6027C31.6059 26.6203 30.5893 29.1029 30.5893 32.0504C30.5893 34.9979 31.6086 37.4805 33.6419 39.4981C35.6779 41.5156 38.1814 42.5218 41.1605 42.5218C44.1396 42.5218 46.588 41.5025 48.6449 39.4639C50.7019 37.4253 51.7317 34.9533 51.7317 32.0478C51.7317 29.1423 50.7019 26.6702 48.6449 24.6316C46.588 22.593 44.0923 21.5738 41.1605 21.5738V21.579Z" fill="#004F95"/>
<path d="M47.6624 58.1152C48.9759 59.5601 50.6599 60.2825 52.7169 60.2825C54.5558 60.2825 56.153 59.6468 57.5086 58.3779C58.8641 57.109 59.5445 55.4671 59.5445 53.4548V17.9346H63.1567V53.4548C63.1567 56.3446 62.1374 58.8061 60.1041 60.8421C58.0681 62.878 55.6066 63.8947 52.7169 63.8947C49.5644 63.8947 46.961 62.7335 44.904 60.4138L47.6624 58.1152Z" fill="#004F95"/>
<path d="M81.4068 18.6577L79.7649 21.8759C79.2395 21.7025 78.6037 21.6132 77.8603 21.6132C75.8453 21.6132 74.1929 22.2909 72.903 23.6491C71.6105 25.0073 70.9669 26.6256 70.9669 28.5065V46.1024H67.3547V18.7234L70.3758 21.1534C72.3881 19.0518 74.8838 18.001 77.8603 18.001C79.1738 18.001 80.356 18.219 81.4042 18.6577H81.4068Z" fill="#004F95"/>
<path d="M105.699 41.7435C102.854 44.649 99.4388 46.1017 95.4562 46.1017C91.4736 46.1017 88.2765 44.7146 85.4761 41.9379C82.6756 39.1637 81.2754 35.8668 81.2754 32.0497C81.2754 28.2326 82.6756 24.8306 85.4761 22.0984C88.2765 19.3663 91.6023 18.0002 95.4562 18.0002C99.3101 18.0002 102.854 19.453 105.699 22.3585L109.637 17.9346V46.1017L105.699 41.7435ZM95.4562 21.5783C92.4798 21.5783 89.9736 22.5871 87.9376 24.602C85.9017 26.6196 84.885 29.1021 84.885 32.0497C84.885 34.9972 85.9043 37.4824 87.9376 39.4973C89.9736 41.5149 92.4771 42.5211 95.4562 42.5211C98.4353 42.5211 100.884 41.5018 102.941 39.4632C104.998 37.4246 106.027 34.9526 106.027 32.047C106.027 29.1415 104.998 26.6695 102.941 24.6309C100.884 22.5923 98.388 21.573 95.4562 21.573V21.5783Z" fill="#004F95"/>
<path d="M67.3547 57.5164H72.0913L73.3864 53.5075L74.784 59.4709L76.4338 55.3123L77.7421 57.0225L79.56 49.5381L81.5119 60.837L83.0067 53.6389L84.462 57.5164H109.461" stroke="#F78117" stroke-miterlimit="10"/>
<path d="M61.3362 0V0.288975L61.1917 0.562187L61.0787 0.541171L61.3362 0Z" fill="#F78117"/>
<path d="M61.0787 0.541016L61.3362 0.756433V0.677622L61.1943 0.562032L61.0787 0.541016Z" fill="#F78117"/>
<path d="M61.3362 0.385742L61.2416 0.548619L61.3362 0.611668V0.385742Z" fill="#F78117"/>
<path d="M61.1365 0.669922C61.1365 0.669922 61.1996 1.10338 61.168 1.55524C61.168 1.55524 61.168 2.0859 61.0236 2.40902H61.1523L61.2968 2.21725V0.798647L61.1365 0.669922Z" fill="#F78117"/>
<path d="M61.3362 2.25391L61.2075 2.41416H61.3362V2.25391Z" fill="#F78117"/>
<path d="M61.3362 2.62479L61.2075 2.46191H61.3362V2.62479Z" fill="#F78117"/>
<path d="M61.0157 2.46191H61.1444L61.3047 2.67208V3.71764H61.0314C61.0314 3.71764 61.1286 3.44443 61.1129 2.91377C61.1129 2.91377 61.0971 2.62479 61.0157 2.46454V2.46191Z" fill="#F78117"/>
<path d="M60.5638 0.0185547C60.5638 0.0185547 60.6768 0.318038 60.5638 0.549217C60.5638 0.549217 60.443 0.764635 60.1619 0.869716L60.2433 0.998441C60.2433 0.998441 60.774 0.725229 60.8055 0.420492C60.8055 0.420492 60.8528 0.131518 60.5638 0.0185547Z" fill="#F78117"/>
<path d="M60.1146 1.09522C60.1146 1.09522 60.2433 1.01378 60.1619 0.934971C60.1619 0.934971 60.0174 0.822009 59.8414 0.934971C59.8414 0.934971 59.7442 1.01641 59.8572 1.09522C59.8572 1.09522 59.9202 1.20818 59.8099 1.14251C59.8099 1.14251 59.6496 1.01378 59.4395 1.15827C59.4395 1.15827 59.2293 1.31852 59.3764 1.49716C59.3764 1.49716 59.4237 1.53919 59.5209 1.52868C59.5209 1.52868 59.5734 1.59961 59.4736 1.59173C59.4736 1.59173 59.1689 1.49453 58.9745 1.84918C58.9745 1.84918 58.8142 2.15392 59.2004 2.25112C59.2004 2.25112 59.2976 2.30366 59.2004 2.31417C59.2004 2.31417 58.7512 2.21697 58.7013 2.66882C58.7013 2.66882 58.654 2.98932 59.0218 3.05499C59.0218 3.05499 59.119 3.10228 59.0218 3.11804C59.0218 3.11804 58.4911 3.10228 58.5069 3.71438C58.5069 3.71438 58.5226 4.13208 58.9088 4.21352C58.9088 4.21352 59.2792 4.26081 59.3764 3.87463C59.3764 3.87463 58.9429 4.00336 58.9429 3.64871C58.9429 3.64871 58.9429 3.45693 59.2319 3.43854C59.2319 3.43854 59.4237 3.42278 59.6181 3.74328L59.7153 3.91929L59.9071 3.85624C59.9071 3.85624 59.4395 3.29406 59.4736 2.58475C59.4736 2.58475 59.4263 1.76512 60.1172 1.08997L60.1146 1.09522Z" fill="#F78117"/>
<path d="M60.837 0.499023C60.837 0.499023 60.7556 0.756474 60.4666 0.916723C60.4666 0.916723 59.8703 1.15841 59.6312 1.99381C59.6312 1.99381 59.2451 2.86336 59.9517 3.82749L60.1619 3.79596C60.1619 3.79596 59.7757 3.44131 59.7757 2.81345C59.7757 2.81345 59.76 2.10677 60.3064 2.10677C60.3064 2.10677 60.5481 2.09101 60.6453 2.37999C60.6453 2.37999 60.7083 2.57176 60.6295 2.7504C60.6295 2.7504 60.9185 2.66896 60.9342 2.3327C60.9342 2.3327 60.95 1.89924 60.5638 1.80204C60.5638 1.80204 60.1146 1.78627 60.1619 1.4973C60.1619 1.4973 60.1461 1.33705 60.4824 1.04808C60.4824 1.04808 60.8029 0.806387 60.837 0.50165V0.499023Z" fill="#F78117"/>
<path d="M59.8414 2.89746C59.8414 2.89746 59.8414 3.44389 60.2433 3.79854L60.485 3.76701C60.485 3.76701 59.9701 3.46228 59.8414 2.89746Z" fill="#F78117"/>
<path d="M61.3388 3.74902C61.3388 3.74902 60.3563 3.78055 59.6496 3.97495C59.6496 3.97495 59.4578 4.05639 59.5209 4.2324C59.5209 4.2324 59.5524 4.39265 59.7626 4.36112C59.7626 4.36112 60.5507 4.15096 61.3414 4.15096V3.74902H61.3388Z" fill="#F78117"/>
<path d="M61.1286 4.2168L60.9369 4.32976L60.8081 4.23256C60.8081 4.23256 60.9842 4.2168 61.1286 4.2168Z" fill="#F78117"/>
<path d="M60.5822 4.48987C60.5822 4.48987 60.6137 4.36115 60.6952 4.32962C60.6952 4.32962 60.7425 4.34538 60.8239 4.42682L60.9211 4.34538C60.9211 4.34538 60.8081 4.24818 60.6794 4.23242C60.6794 4.23242 60.5665 4.26395 60.5034 4.40843L60.5848 4.48987H60.5822Z" fill="#F78117"/>
<path d="M60.5638 4.24805L60.4666 4.39253L60.3221 4.29533C60.3221 4.29533 60.4509 4.26381 60.5638 4.24805Z" fill="#F78117"/>
<path d="M60.7267 4.39261C60.7267 4.39261 60.6952 4.37685 60.6637 4.40837C60.6637 4.40837 60.6321 4.45566 60.6321 4.5371C60.6321 4.5371 60.6321 4.56862 60.6637 4.60015L60.7451 4.71311C60.7451 4.71311 60.7136 4.65006 60.7609 4.55286C60.7609 4.55286 60.8081 4.50557 60.7924 4.45566C60.7924 4.45566 60.7766 4.42414 60.7293 4.39261H60.7267Z" fill="#F78117"/>
<path d="M59.7757 4.40775C59.7757 4.40775 60.0016 4.32631 60.2433 4.31055C60.2433 4.31055 60.774 4.50232 60.8712 5.29306L60.7425 5.30882C60.7425 5.30882 60.6295 4.84121 60.3721 4.63367C60.3721 4.63367 60.1619 4.4419 59.7941 4.45766L59.7783 4.41037L59.7757 4.40775Z" fill="#F78117"/>
<path d="M59.5524 4.71602C59.5524 4.71602 59.5682 4.50586 59.9071 4.50586C59.9071 4.50586 60.2617 4.53738 60.4535 4.79483C60.4535 4.79483 60.6137 5.02076 60.6952 5.3255L60.598 5.34126C60.598 5.34126 60.5507 5.18101 60.4693 5.08381C60.4693 5.08381 60.4062 5.03652 60.422 5.11533C60.422 5.11533 60.5034 5.24406 60.5507 5.35702L60.4535 5.38855C60.4535 5.38855 60.309 5.08381 60.0831 4.92093L60.1461 4.85788C60.1461 4.85788 60.1619 4.8106 60.1146 4.82636C60.1146 4.82636 60.0332 4.97085 59.8099 4.95508C59.8099 4.95508 59.5367 4.93932 59.5524 4.7134V4.71602Z" fill="#F78117"/>
<path d="M61.3388 4.2168C61.3388 4.2168 61.1759 4.2168 60.9842 4.36128C60.9842 4.36128 60.8081 4.47425 60.7924 4.7317C60.7924 4.7317 60.7924 4.8289 60.8554 5.00491C60.8554 5.00491 60.9185 5.1494 60.9185 5.27812H61.1103C61.1103 5.27812 60.9973 5.08635 60.9973 4.87618C60.9973 4.87618 60.9815 4.52153 61.3362 4.39281V4.2168H61.3388Z" fill="#F78117"/>
<path d="M61.3441 5.3252V5.71137C61.3441 5.71137 60.8686 5.69561 60.5008 5.8401C60.5008 5.8401 60.309 5.9373 60.2276 5.77705C60.2276 5.77705 60.1304 5.63256 60.309 5.50383C60.309 5.50383 60.6715 5.32782 61.3467 5.32782L61.3441 5.3252Z" fill="#F78117"/>
<path d="M61.2232 5.26202H61.1602C61.1602 5.26202 61.063 5.10177 61.063 4.86008C61.063 4.86008 61.0787 4.55535 61.3388 4.44238V4.55535C61.3388 4.55535 61.1286 4.66831 61.1286 4.92576C61.1286 4.92576 61.1286 5.10177 61.2258 5.26465L61.2232 5.26202Z" fill="#F78117"/>
<path d="M61.3362 4.60254V4.8127C61.3362 4.8127 61.2889 4.8127 61.2889 4.87575V5.26193C61.2889 5.26193 61.2075 5.1332 61.1917 4.92304C61.1917 4.92304 61.1996 4.69711 61.3362 4.60254Z" fill="#F78117"/>
<path d="M61.3362 0V0.291602L61.4912 0.546425L61.5989 0.551679L61.3362 0Z" fill="#F78117"/>
<path d="M61.5989 0.551826L61.3362 0.756736V0.677924L61.4964 0.543945L61.5989 0.551826Z" fill="#F78117"/>
<path d="M61.3362 0.385742L61.4334 0.548619L61.3362 0.611668V0.385742Z" fill="#F78117"/>
<path d="M61.5385 0.669922C61.5385 0.669922 61.4754 1.10338 61.5069 1.55524C61.5069 1.55524 61.5069 2.0859 61.6514 2.40902H61.5227L61.3782 2.21725V0.798647L61.5385 0.669922Z" fill="#F78117"/>
<path d="M61.3362 2.25391L61.4649 2.41416H61.3362V2.25391Z" fill="#F78117"/>
<path d="M61.3362 2.62479L61.4649 2.46191H61.3362V2.62479Z" fill="#F78117"/>
<path d="M61.6593 2.46191H61.5306L61.3703 2.67208V3.71764H61.6435C61.6435 3.71764 61.5463 3.44443 61.5621 2.91377C61.5621 2.91377 61.5779 2.62479 61.6593 2.46454V2.46191Z" fill="#F78117"/>
<path d="M62.1085 0.0185547C62.1085 0.0185547 61.9956 0.291767 62.1085 0.549217C62.1085 0.549217 62.2215 0.759381 62.5105 0.869716L62.429 0.998441C62.429 0.998441 61.8984 0.725229 61.8668 0.420492C61.8668 0.420492 61.8196 0.131518 62.1085 0.0185547Z" fill="#F78117"/>
<path d="M62.5604 1.09522C62.5604 1.09522 62.4317 1.01378 62.5131 0.934971C62.5131 0.934971 62.6576 0.822009 62.8336 0.934971C62.8336 0.934971 62.9308 1.01641 62.8178 1.09522C62.8178 1.09522 62.7548 1.20818 62.8651 1.14251C62.8651 1.14251 63.0254 1.01378 63.2355 1.15827C63.2355 1.15827 63.4457 1.31852 63.2986 1.49716C63.2986 1.49716 63.2355 1.52868 63.1541 1.52868C63.1541 1.52868 63.1068 1.59173 63.2014 1.59173C63.2014 1.59173 63.5061 1.49453 63.7005 1.84918C63.7005 1.84918 63.8608 2.15392 63.4746 2.25112C63.4746 2.25112 63.3774 2.28264 63.4746 2.31417C63.4746 2.31417 63.9238 2.21697 63.9737 2.66882C63.9737 2.66882 64.021 2.98932 63.6532 3.05499C63.6532 3.05499 63.556 3.10228 63.6532 3.11804C63.6532 3.11804 64.1839 3.10228 64.1681 3.71438C64.1681 3.71438 64.1524 4.13208 63.7662 4.21352C63.7662 4.21352 63.3958 4.26081 63.2986 3.87463C63.2986 3.87463 63.732 4.00336 63.732 3.64871C63.732 3.64871 63.732 3.45693 63.4431 3.43854C63.4431 3.43854 63.2513 3.42278 63.0569 3.74328L62.9597 3.91929L62.7679 3.85624C62.7679 3.85624 63.2355 3.29406 63.2014 2.58475C63.2014 2.58475 63.2487 1.76512 62.5578 1.08997L62.5604 1.09522Z" fill="#F78117"/>
<path d="M61.8353 0.499023C61.8353 0.499023 61.9168 0.756474 62.2057 0.916723C62.2057 0.916723 62.8021 1.15841 63.0411 1.99381C63.0411 1.99381 63.4273 2.86336 62.7206 3.82749L62.5105 3.79596C62.5105 3.79596 62.8966 3.44131 62.8966 2.81345C62.8966 2.81345 62.9124 2.10677 62.366 2.10677C62.366 2.10677 62.1243 2.09101 62.0271 2.37999C62.0271 2.37999 61.964 2.57176 62.0429 2.7504C62.0429 2.7504 61.7539 2.66896 61.7381 2.3327C61.7381 2.3327 61.7224 1.89924 62.1085 1.80204C62.1085 1.80204 62.5578 1.78627 62.5105 1.4973C62.5105 1.4973 62.5262 1.33705 62.19 1.04808C62.19 1.04808 61.8695 0.806387 61.8353 0.50165V0.499023Z" fill="#F78117"/>
<path d="M62.8336 2.89746C62.8336 2.89746 62.8336 3.44389 62.4317 3.79854L62.19 3.76701C62.19 3.76701 62.7049 3.46228 62.8336 2.89746Z" fill="#F78117"/>
<path d="M61.3388 3.74902C61.3388 3.74902 62.3187 3.78055 63.0254 3.97495C63.0254 3.97495 63.2171 4.05639 63.1541 4.2324C63.1541 4.2324 63.1226 4.39265 62.9124 4.36112C62.9124 4.36112 62.1243 4.15096 61.3388 4.15096V3.74902Z" fill="#F78117"/>
<path d="M61.5463 4.2168L61.7381 4.32976L61.8668 4.23256C61.8668 4.23256 61.6908 4.2168 61.5463 4.2168Z" fill="#F78117"/>
<path d="M62.0928 4.48987C62.0928 4.48987 62.0612 4.36115 61.9798 4.32962C61.9798 4.32962 61.9325 4.34538 61.8511 4.42682L61.7539 4.34538C61.7539 4.34538 61.8668 4.24818 61.9956 4.23242C61.9956 4.23242 62.1085 4.26395 62.1716 4.40843L62.0901 4.48987H62.0928Z" fill="#F78117"/>
<path d="M62.1085 4.24805L62.2057 4.39253L62.3502 4.29533C62.3502 4.29533 62.2215 4.26381 62.1085 4.24805Z" fill="#F78117"/>
<path d="M61.9483 4.39261C61.9483 4.39261 61.9798 4.37685 62.0113 4.40837C62.0113 4.40837 62.0429 4.45566 62.0429 4.5371C62.0429 4.5371 62.0429 4.56862 62.0113 4.60015L61.9299 4.71311C61.9299 4.71311 61.9614 4.65006 61.9141 4.55286C61.9141 4.55286 61.8668 4.50557 61.8826 4.45566C61.8826 4.45566 61.8984 4.42414 61.9457 4.39261H61.9483Z" fill="#F78117"/>
<path d="M62.8966 4.40775C62.8966 4.40775 62.6707 4.32631 62.429 4.31055C62.429 4.31055 61.8984 4.50232 61.8012 5.29306L61.9299 5.30882C61.9299 5.30882 62.0429 4.84121 62.3003 4.63367C62.3003 4.63367 62.5105 4.4419 62.8783 4.45766L62.894 4.41037L62.8966 4.40775Z" fill="#F78117"/>
<path d="M63.1226 4.71602C63.1226 4.71602 63.1068 4.50586 62.7679 4.50586C62.7679 4.50586 62.4133 4.53738 62.2215 4.79483C62.2215 4.79483 62.0612 5.02076 61.9798 5.3255L62.077 5.34126C62.077 5.34126 62.1243 5.18101 62.2057 5.08381C62.2057 5.08381 62.2688 5.03652 62.253 5.11533C62.253 5.11533 62.1716 5.24406 62.1243 5.35702L62.2215 5.38855C62.2215 5.38855 62.366 5.08381 62.5919 4.92093L62.5289 4.85788C62.5289 4.85788 62.5131 4.8106 62.5604 4.82636C62.5604 4.82636 62.6418 4.97085 62.8651 4.95508C62.8651 4.95508 63.1383 4.93932 63.1226 4.7134V4.71602Z" fill="#F78117"/>
<path d="M61.3388 4.2168C61.3388 4.2168 61.4991 4.2168 61.6908 4.36128C61.6908 4.36128 61.8668 4.47425 61.8826 4.7317C61.8826 4.7317 61.8826 4.8289 61.8196 5.00491C61.8196 5.00491 61.7565 5.1494 61.7565 5.27812H61.5647C61.5647 5.27812 61.6777 5.08635 61.6777 4.87618C61.6777 4.87618 61.6935 4.52153 61.3414 4.39281V4.2168H61.3388Z" fill="#F78117"/>
<path d="M61.3283 5.3252V5.71137C61.3283 5.71137 61.8012 5.69561 62.1716 5.8401C62.1716 5.8401 62.3634 5.9373 62.4448 5.77705C62.4448 5.77705 62.542 5.63256 62.3634 5.50383C62.3634 5.50383 62.0008 5.32782 61.3257 5.32782L61.3283 5.3252Z" fill="#F78117"/>
<path d="M61.4491 5.26172H61.5122C61.5122 5.26172 61.6094 5.10147 61.6094 4.85978C61.6094 4.85978 61.5936 4.55504 61.3388 4.43945V4.55242C61.3388 4.55242 61.5463 4.66538 61.5463 4.92283C61.5463 4.92283 61.5463 5.09884 61.4491 5.26172Z" fill="#F78117"/>
<path d="M61.3362 4.60028V4.81045C61.3362 4.81045 61.3861 4.81045 61.3861 4.8735V5.25967C61.3861 5.25967 61.4675 5.13095 61.4833 4.92078C61.4833 4.92078 61.4675 4.69486 61.3388 4.59766L61.3362 4.60028Z" fill="#F78117"/>
<path d="M69.0702 7.73876H68.7812L68.571 7.61003V7.49707L69.0702 7.73876Z" fill="#F78117"/>
<path d="M68.5159 7.52051L68.3372 7.74643H68.4187L68.5159 7.61771V7.52051Z" fill="#F78117"/>
<path d="M68.7077 7.74661L68.5474 7.64941L68.4817 7.74661H68.7077Z" fill="#F78117"/>
<path d="M68.4266 7.5446C68.4266 7.5446 67.9931 7.60765 67.5413 7.57613C67.5413 7.57613 67.0106 7.57613 66.6875 7.43164V7.56037L66.8792 7.70485H68.2952L68.4239 7.5446H68.4266Z" fill="#F78117"/>
<path d="M66.8425 7.74689L66.6822 7.61816V7.74689H66.8425Z" fill="#F78117"/>
<path d="M66.472 7.74689L66.6323 7.61816V7.74689H66.472Z" fill="#F78117"/>
<path d="M66.6323 7.42383V7.55255L66.4221 7.7128H65.3766V7.43959C65.3766 7.43959 65.6498 7.53679 66.1804 7.52103C66.1804 7.52103 66.4694 7.50527 66.6297 7.42383H66.6323Z" fill="#F78117"/>
<path d="M69.0781 6.9742C69.0781 6.9742 68.8049 7.08717 68.5474 6.9742C68.5474 6.9742 68.3372 6.86124 68.2269 6.57227L68.0982 6.6537C68.0982 6.6537 68.3714 7.18437 68.6761 7.21589C68.6761 7.21589 68.9651 7.26318 69.0781 6.9742Z" fill="#F78117"/>
<path d="M68.001 6.52509C68.001 6.52509 68.0824 6.65381 68.1612 6.57237C68.1612 6.57237 68.2742 6.42789 68.1612 6.25187C68.1612 6.25187 68.0798 6.15467 68.001 6.26764C68.001 6.26764 67.888 6.33069 67.9537 6.22035C67.9537 6.22035 68.0824 6.0601 67.9379 5.84994C67.9379 5.84994 67.7777 5.63977 67.5991 5.78689C67.5991 5.78689 67.5675 5.84994 67.5675 5.93137C67.5675 5.93137 67.5045 5.97866 67.5045 5.88409C67.5045 5.88409 67.6017 5.57935 67.247 5.38495C67.247 5.38495 66.9423 5.2247 66.8451 5.61088C66.8451 5.61088 66.8136 5.70808 66.782 5.61088C66.782 5.61088 66.8792 5.16165 66.4274 5.11174C66.4274 5.11174 66.1069 5.06445 66.0412 5.43224C66.0412 5.43224 65.9939 5.52944 65.9782 5.43224C65.9782 5.43224 65.9939 4.90157 65.3818 4.91734C65.3818 4.91734 64.9641 4.9331 64.8827 5.31927C64.8827 5.31927 64.8354 5.68969 65.2216 5.78689C65.2216 5.78689 65.0929 5.35343 65.4475 5.35343C65.4475 5.35343 65.6393 5.35343 65.6577 5.6424C65.6577 5.6424 65.6734 5.83417 65.3529 6.02858L65.1769 6.12578L65.24 6.31755C65.24 6.31755 65.8022 5.84994 66.5115 5.88409C66.5115 5.88409 67.3311 5.8368 68.0062 6.52771L68.001 6.52509Z" fill="#F78117"/>
<path d="M68.5947 7.24764C68.5947 7.24764 68.3372 7.16621 68.177 6.87723C68.177 6.87723 67.9353 6.28089 67.0999 6.04183C67.0999 6.04183 66.2304 5.65566 65.2662 6.36233L65.2978 6.57249C65.2978 6.57249 65.6524 6.18632 66.2803 6.18632C66.2803 6.18632 66.9869 6.17056 66.9869 6.71698C66.9869 6.71698 67.0027 6.95867 66.7137 7.05587C66.7137 7.05587 66.522 7.11892 66.3433 7.04011C66.3433 7.04011 66.4248 7.32908 66.761 7.34484C66.761 7.34484 67.1945 7.36061 67.2917 6.97443C67.2917 6.97443 67.3074 6.52521 67.5964 6.57249C67.5964 6.57249 67.7567 6.55673 68.0456 6.89299C68.0456 6.89299 68.2873 7.21349 68.5921 7.24764H68.5947Z" fill="#F78117"/>
<path d="M66.1988 6.24902C66.1988 6.24902 65.6524 6.24902 65.2978 6.65096L65.3293 6.89265C65.3293 6.89265 65.634 6.37775 66.1988 6.24902Z" fill="#F78117"/>
<path d="M65.3477 7.74665C65.3477 7.74665 65.3162 6.76414 65.1218 6.05746C65.1218 6.05746 65.0403 5.86569 64.8643 5.92874C64.8643 5.92874 64.7041 5.96026 64.7356 6.17043C64.7356 6.17043 64.9457 6.95854 64.9457 7.74928H65.3477V7.74665Z" fill="#F78117"/>
<path d="M64.8801 7.53632L64.7671 7.34455L64.8643 7.21582C64.8643 7.21582 64.8801 7.39183 64.8801 7.53632Z" fill="#F78117"/>
<path d="M64.6068 6.98994C64.6068 6.98994 64.7356 7.02147 64.7671 7.10291C64.7671 7.10291 64.7513 7.15019 64.6699 7.23163L64.7513 7.32883C64.7513 7.32883 64.8485 7.21587 64.8643 7.08714C64.8643 7.08714 64.8328 6.97418 64.6883 6.91113L64.6068 6.99257V6.98994Z" fill="#F78117"/>
<path d="M64.8485 6.97411L64.704 6.87691L64.8012 6.73242C64.8012 6.73242 64.8328 6.86115 64.8485 6.97411Z" fill="#F78117"/>
<path d="M64.7041 7.13461C64.7041 7.13461 64.7198 7.10309 64.6883 7.07156C64.6883 7.07156 64.641 7.04004 64.5596 7.04004C64.5596 7.04004 64.528 7.04004 64.4965 7.07156L64.3836 7.153C64.3836 7.153 64.4466 7.12148 64.5438 7.16876C64.5438 7.16876 64.5911 7.21605 64.641 7.20029C64.641 7.20029 64.6725 7.18453 64.7041 7.13724V7.13461Z" fill="#F78117"/>
<path d="M64.6857 6.18652C64.6857 6.18652 64.7671 6.41245 64.7829 6.65414C64.7829 6.65414 64.5911 7.1848 63.8003 7.282L63.7846 7.15328C63.7846 7.15328 64.2522 7.04031 64.4597 6.78286C64.4597 6.78286 64.6515 6.5727 64.6357 6.20491L64.683 6.18915L64.6857 6.18652Z" fill="#F78117"/>
<path d="M64.3809 5.96062C64.3809 5.96062 64.5911 5.97638 64.5911 6.31527C64.5911 6.31527 64.5596 6.66992 64.3021 6.86169C64.3021 6.86169 64.0762 7.02194 63.7714 7.10338L63.7557 7.00618C63.7557 7.00618 63.9159 6.95889 64.0131 6.87746C64.0131 6.87746 64.0604 6.81441 63.9816 6.83017C63.9816 6.83017 63.8529 6.91161 63.7399 6.95889L63.7084 6.86169C63.7084 6.86169 64.0131 6.71721 64.176 6.49128L64.2391 6.55433C64.2391 6.55433 64.2863 6.57009 64.2706 6.5228C64.2706 6.5228 64.1261 6.44137 64.1419 6.21807C64.1419 6.21807 64.1576 5.94486 64.3835 5.96062H64.3809Z" fill="#F78117"/>
<path d="M64.8801 7.74662C64.8801 7.74662 64.8801 7.58374 64.7356 7.39197C64.7356 7.39197 64.6226 7.21596 64.3652 7.2002C64.3652 7.2002 64.268 7.2002 64.0919 7.26324C64.0919 7.26324 63.9475 7.32629 63.8187 7.32629V7.51807C63.8187 7.51807 64.0105 7.4051 64.2207 7.4051C64.2207 7.4051 64.5753 7.38934 64.704 7.74399H64.8801V7.74662Z" fill="#F78117"/>
<path d="M63.7688 7.75422H63.3826C63.3826 7.75422 63.3984 7.27872 63.2539 6.91094C63.2539 6.91094 63.1567 6.71916 63.317 6.63773C63.317 6.63773 63.4615 6.54052 63.5902 6.71916C63.5902 6.71916 63.7662 7.0817 63.7662 7.75685L63.7688 7.75422Z" fill="#F78117"/>
<path d="M63.8345 7.63388V7.57083C63.8345 7.57083 63.9947 7.47363 64.2364 7.47363C64.2364 7.47363 64.5412 7.48939 64.6541 7.74947H64.5412C64.5412 7.74947 64.4282 7.53931 64.1708 7.53931C64.1708 7.53931 63.9947 7.53931 63.8319 7.63651L63.8345 7.63388Z" fill="#F78117"/>
<path d="M64.4939 7.74703H64.2837C64.2837 7.74703 64.2837 7.69974 64.2207 7.69974H63.8345C63.8345 7.69974 63.9632 7.6183 64.1734 7.60254C64.1734 7.60254 64.3993 7.61042 64.4939 7.74703Z" fill="#F78117"/>
<path d="M69.0702 7.75488H68.7812L68.571 7.88361V7.99657L69.0702 7.75488Z" fill="#F78117"/>
<path d="M68.5159 7.973L68.3372 7.74707H68.4187L68.5159 7.8758V7.973Z" fill="#F78117"/>
<path d="M68.7077 7.74707L68.5474 7.84427L68.4817 7.74707H68.7077Z" fill="#F78117"/>
<path d="M68.4266 7.94638C68.4266 7.94638 67.9931 7.88333 67.5413 7.91486C67.5413 7.91486 67.0106 7.91486 66.6875 8.05935V7.93062L66.8792 7.78613H68.2952L68.4239 7.94638H68.4266Z" fill="#F78117"/>
<path d="M66.8425 7.74707L66.6822 7.8758V7.74707H66.8425Z" fill="#F78117"/>
<path d="M66.472 7.74707L66.6323 7.8758V7.74707H66.472Z" fill="#F78117"/>
<path d="M66.6323 8.06729V7.93857L66.4221 7.77832H65.3766V8.05153C65.3766 8.05153 65.6498 7.95433 66.1804 7.97009C66.1804 7.97009 66.4694 7.98586 66.6297 8.06729H66.6323Z" fill="#F78117"/>
<path d="M69.0781 8.51898C69.0781 8.51898 68.8049 8.40601 68.5474 8.51898C68.5474 8.51898 68.3372 8.63194 68.2269 8.92091L68.0982 8.83948C68.0982 8.83948 68.3714 8.30881 68.6761 8.27729C68.6761 8.27729 68.9651 8.23 69.0781 8.51898Z" fill="#F78117"/>
<path d="M68.001 8.96785C68.001 8.96785 68.0824 8.83912 68.1612 8.92056C68.1612 8.92056 68.2742 9.06505 68.1612 9.24106C68.1612 9.24106 68.0798 9.33826 68.001 9.2253C68.001 9.2253 67.888 9.16225 67.9537 9.27258C67.9537 9.27258 68.0824 9.43283 67.9379 9.643C67.9379 9.643 67.7777 9.85316 67.5991 9.70604C67.5991 9.70604 67.5675 9.643 67.5675 9.56156C67.5675 9.56156 67.5045 9.51427 67.5045 9.60884C67.5045 9.60884 67.6017 9.91358 67.247 10.108C67.247 10.108 66.9423 10.2682 66.8451 9.88206C66.8451 9.88206 66.8136 9.78486 66.782 9.88206C66.782 9.88206 66.8792 10.3313 66.4274 10.3812C66.4274 10.3812 66.1069 10.4285 66.0412 10.0607C66.0412 10.0607 65.9939 9.96349 65.9782 10.0607C65.9782 10.0607 65.9939 10.5914 65.3818 10.5756C65.3818 10.5756 64.9641 10.5598 64.8827 10.1737C64.8827 10.1737 64.8354 9.80325 65.2216 9.70604C65.2216 9.70604 65.0929 10.1395 65.4475 10.1395C65.4475 10.1395 65.6393 10.1395 65.6577 9.85053C65.6577 9.85053 65.6734 9.65876 65.3529 9.46436L65.1769 9.36716L65.24 9.17538C65.24 9.17538 65.8022 9.643 66.5115 9.60884C66.5115 9.60884 67.3311 9.65613 68.0062 8.96522L68.001 8.96785Z" fill="#F78117"/>
<path d="M68.5947 8.24573C68.5947 8.24573 68.3372 8.32717 68.177 8.61614C68.177 8.61614 67.9353 9.21248 67.0999 9.45154C67.0999 9.45154 66.2304 9.83771 65.2662 9.13104L65.2978 8.92088C65.2978 8.92088 65.6524 9.30705 66.2803 9.30705C66.2803 9.30705 66.9869 9.32281 66.9869 8.77639C66.9869 8.77639 67.0027 8.5347 66.7137 8.4375C66.7137 8.4375 66.522 8.37445 66.3433 8.45326C66.3433 8.45326 66.4248 8.16429 66.761 8.14853C66.761 8.14853 67.1945 8.13276 67.2917 8.51894C67.2917 8.51894 67.3074 8.96816 67.5964 8.92088C67.5964 8.92088 67.7567 8.93664 68.0456 8.60038C68.0456 8.60038 68.2873 8.27988 68.5921 8.24573H68.5947Z" fill="#F78117"/>
<path d="M66.1988 9.24128C66.1988 9.24128 65.6524 9.24128 65.2978 8.83934L65.3293 8.59766C65.3293 8.59766 65.634 9.11256 66.1988 9.24128Z" fill="#F78117"/>
<path d="M65.3477 7.74707C65.3477 7.74707 65.3162 8.72696 65.1218 9.43363C65.1218 9.43363 65.0403 9.62541 64.8643 9.56236C64.8643 9.56236 64.7041 9.53083 64.7356 9.32067C64.7356 9.32067 64.9457 8.53256 64.9457 7.74707H65.3477Z" fill="#F78117"/>
<path d="M64.8801 7.9541L64.7671 8.14588L64.8643 8.2746C64.8643 8.2746 64.8801 8.09859 64.8801 7.9541Z" fill="#F78117"/>
<path d="M64.6068 8.50295C64.6068 8.50295 64.7356 8.47143 64.7671 8.38999C64.7671 8.38999 64.7513 8.3427 64.6699 8.26126L64.7513 8.16406C64.7513 8.16406 64.8485 8.27703 64.8643 8.40575C64.8643 8.40575 64.8328 8.51871 64.6883 8.58176L64.6068 8.50032V8.50295Z" fill="#F78117"/>
<path d="M64.8485 8.51855L64.704 8.61575L64.8012 8.76024C64.8012 8.76024 64.8328 8.63152 64.8485 8.51855Z" fill="#F78117"/>
<path d="M64.7041 8.356C64.7041 8.356 64.7198 8.38753 64.6883 8.41905C64.6883 8.41905 64.641 8.45058 64.5596 8.45058C64.5596 8.45058 64.528 8.45058 64.4965 8.41905L64.3836 8.33761C64.3836 8.33761 64.4466 8.36914 64.5438 8.32185C64.5438 8.32185 64.5911 8.27456 64.641 8.29033C64.641 8.29033 64.6725 8.30609 64.7041 8.35338V8.356Z" fill="#F78117"/>
<path d="M64.6857 9.30739C64.6857 9.30739 64.7671 9.08147 64.7829 8.83978C64.7829 8.83978 64.5911 8.30911 63.8003 8.21191L63.7846 8.34064C63.7846 8.34064 64.2522 8.4536 64.4597 8.71105C64.4597 8.71105 64.6515 8.92122 64.6357 9.289L64.683 9.30476L64.6857 9.30739Z" fill="#F78117"/>
<path d="M64.3809 9.53046C64.3809 9.53046 64.5911 9.5147 64.5911 9.17581C64.5911 9.17581 64.5596 8.82116 64.3021 8.62938C64.3021 8.62938 64.0762 8.46913 63.7714 8.3877L63.7557 8.4849C63.7557 8.4849 63.9159 8.53218 64.0131 8.61362C64.0131 8.61362 64.0604 8.67667 63.9816 8.66091C63.9816 8.66091 63.8529 8.57947 63.7399 8.53218L63.7084 8.62938C63.7084 8.62938 64.0131 8.77387 64.176 8.9998L64.2391 8.93675C64.2391 8.93675 64.2863 8.92098 64.2706 8.96827C64.2706 8.96827 64.1261 9.04971 64.1419 9.27301C64.1419 9.27301 64.1576 9.54622 64.3835 9.53046H64.3809Z" fill="#F78117"/>
<path d="M64.8801 7.74707C64.8801 7.74707 64.8801 7.90732 64.7356 8.09909C64.7356 8.09909 64.6226 8.27511 64.3652 8.29087C64.3652 8.29087 64.268 8.29087 64.0919 8.22782C64.0919 8.22782 63.9475 8.16477 63.8187 8.16477V7.973C63.8187 7.973 64.0105 8.08596 64.2207 8.08596C64.2207 8.08596 64.5753 8.10172 64.704 7.7497H64.8801V7.74707Z" fill="#F78117"/>
<path d="M63.7688 7.73895H63.3826C63.3826 7.73895 63.3984 8.21182 63.2539 8.58224C63.2539 8.58224 63.1567 8.77401 63.317 8.85545C63.317 8.85545 63.4615 8.95265 63.5902 8.77401C63.5902 8.77401 63.7662 8.41148 63.7662 7.73633L63.7688 7.73895Z" fill="#F78117"/>
<path d="M63.8345 7.85936V7.92241C63.8345 7.92241 63.9948 8.01961 64.2364 8.01961C64.2364 8.01961 64.5412 8.00385 64.6568 7.74902H64.5438C64.5438 7.74902 64.4308 7.95656 64.1734 7.95656C64.1734 7.95656 63.9974 7.95656 63.8345 7.85936Z" fill="#F78117"/>
<path d="M64.4939 7.74707H64.2837C64.2837 7.74707 64.2837 7.79698 64.2207 7.79698H63.8345C63.8345 7.79698 63.9632 7.87842 64.1734 7.89418C64.1734 7.89418 64.3993 7.87842 64.4965 7.7497L64.4939 7.74707Z" fill="#F78117"/>
<path d="M61.3441 15.4679V15.1789L61.4728 14.9688H61.5858L61.3441 15.4679Z" fill="#F78117"/>
<path d="M61.5621 14.913L61.3362 14.7344V14.8158L61.4649 14.913H61.5621Z" fill="#F78117"/>
<path d="M61.3362 15.1051L61.4334 14.9449L61.3362 14.8818V15.1051Z" fill="#F78117"/>
<path d="M61.5385 14.8241C61.5385 14.8241 61.4754 14.3906 61.5069 13.9387C61.5069 13.9387 61.5069 13.4081 61.6514 13.085H61.5227L61.3782 13.2767V14.6927L61.5385 14.8214V14.8241Z" fill="#F78117"/>
<path d="M61.3362 13.2394L61.4649 13.0791H61.3362V13.2394Z" fill="#F78117"/>
<path d="M61.3362 12.8691L61.4649 13.0294H61.3362V12.8691Z" fill="#F78117"/>
<path d="M61.6593 13.0301H61.5306L61.3703 12.82V11.7744H61.6435C61.6435 11.7744 61.5463 12.0476 61.5621 12.5783C61.5621 12.5783 61.5779 12.8673 61.6593 13.0275V13.0301Z" fill="#F78117"/>
<path d="M62.1085 15.475C62.1085 15.475 61.9956 15.2018 62.1085 14.9443C62.1085 14.9443 62.2215 14.7342 62.5105 14.6238L62.429 14.4951C62.429 14.4951 61.8984 14.7683 61.8668 15.0731C61.8668 15.0731 61.8196 15.362 62.1085 15.475Z" fill="#F78117"/>
<path d="M62.5604 14.3985C62.5604 14.3985 62.4317 14.4799 62.5131 14.5587C62.5131 14.5587 62.6576 14.6717 62.8336 14.5587C62.8336 14.5587 62.9308 14.4773 62.8178 14.3985C62.8178 14.3985 62.7548 14.2855 62.8651 14.3512C62.8651 14.3512 63.0254 14.4799 63.2355 14.3354C63.2355 14.3354 63.4457 14.1752 63.2986 13.9965C63.2986 13.9965 63.2355 13.965 63.1541 13.965C63.1541 13.965 63.1068 13.9019 63.2014 13.9019C63.2014 13.9019 63.5061 13.9991 63.7005 13.6445C63.7005 13.6445 63.8608 13.3398 63.4746 13.2426C63.4746 13.2426 63.3774 13.211 63.4746 13.1795C63.4746 13.1795 63.9238 13.2767 63.9737 12.8249C63.9737 12.8249 64.021 12.5044 63.6532 12.4387C63.6532 12.4387 63.556 12.3914 63.6532 12.3756C63.6532 12.3756 64.1839 12.3914 64.1681 11.7793C64.1681 11.7793 64.1524 11.3616 63.7662 11.2802C63.7662 11.2802 63.3958 11.2329 63.2986 11.619C63.2986 11.619 63.732 11.4903 63.732 11.845C63.732 11.845 63.732 12.0367 63.4431 12.0551C63.4431 12.0551 63.2513 12.0709 63.0569 11.7504L62.9597 11.5744L62.7679 11.6374C62.7679 11.6374 63.2355 12.1996 63.2014 12.9089C63.2014 12.9089 63.2487 13.7286 62.5578 14.4037L62.5604 14.3985Z" fill="#F78117"/>
<path d="M61.8353 14.9925C61.8353 14.9925 61.9168 14.7351 62.2057 14.5748C62.2057 14.5748 62.8021 14.3331 63.0411 13.4977C63.0411 13.4977 63.4273 12.6282 62.7206 11.6641L62.5105 11.6956C62.5105 11.6956 62.8966 12.0502 62.8966 12.6781C62.8966 12.6781 62.9124 13.3848 62.366 13.3848C62.366 13.3848 62.1243 13.4005 62.0271 13.1116C62.0271 13.1116 61.964 12.9198 62.0429 12.7411C62.0429 12.7411 61.7539 12.8226 61.7381 13.1588C61.7381 13.1588 61.7224 13.5923 62.1085 13.6895C62.1085 13.6895 62.5578 13.7053 62.5105 13.9942C62.5105 13.9942 62.5262 14.1545 62.19 14.4435C62.19 14.4435 61.8695 14.6852 61.8353 14.9899V14.9925Z" fill="#F78117"/>
<path d="M62.8336 12.5964C62.8336 12.5964 62.8336 12.05 62.4317 11.6953L62.19 11.7268C62.19 11.7268 62.7049 12.0316 62.8336 12.5964Z" fill="#F78117"/>
<path d="M61.3362 11.7451C61.3362 11.7451 62.3187 11.7136 63.0254 11.5192C63.0254 11.5192 63.2171 11.4378 63.1541 11.2617C63.1541 11.2617 63.1226 11.1015 62.9124 11.133C62.9124 11.133 62.1243 11.3432 61.3336 11.3432V11.7451H61.3362Z" fill="#F78117"/>
<path d="M61.5463 11.277L61.7381 11.1641L61.8668 11.2613C61.8668 11.2613 61.6908 11.277 61.5463 11.277Z" fill="#F78117"/>
<path d="M62.0928 11.0039C62.0928 11.0039 62.0612 11.1326 61.9798 11.1642C61.9798 11.1642 61.9325 11.1484 61.8511 11.067L61.7539 11.1484C61.7539 11.1484 61.8668 11.2456 61.9956 11.2614C61.9956 11.2614 62.1085 11.2298 62.1716 11.0853L62.0901 11.0039H62.0928Z" fill="#F78117"/>
<path d="M62.1085 11.2461L62.2057 11.1016L62.3502 11.1988C62.3502 11.1988 62.2215 11.2303 62.1085 11.2461Z" fill="#F78117"/>
<path d="M61.9483 11.1017C61.9483 11.1017 61.9798 11.1175 62.0113 11.086C62.0113 11.086 62.0429 11.0387 62.0429 10.9573C62.0429 10.9573 62.0429 10.9257 62.0113 10.8942L61.9299 10.7812C61.9299 10.7812 61.9614 10.8443 61.9141 10.9415C61.9141 10.9415 61.8668 10.9888 61.8826 11.0387C61.8826 11.0387 61.8984 11.0702 61.9457 11.1017H61.9483Z" fill="#F78117"/>
<path d="M62.8966 11.0827C62.8966 11.0827 62.6707 11.1642 62.429 11.1799C62.429 11.1799 61.8984 10.9881 61.8012 10.1974L61.9299 10.1816C61.9299 10.1816 62.0429 10.6493 62.3003 10.8568C62.3003 10.8568 62.5105 11.0486 62.8783 11.0328L62.894 11.0801L62.8966 11.0827Z" fill="#F78117"/>
<path d="M63.1226 10.778C63.1226 10.778 63.1068 10.9882 62.7679 10.9882C62.7679 10.9882 62.4133 10.9566 62.2215 10.6992C62.2215 10.6992 62.0612 10.4733 61.9798 10.1685L62.077 10.1528C62.077 10.1528 62.1243 10.313 62.2057 10.4102C62.2057 10.4102 62.2688 10.4575 62.253 10.3787C62.253 10.3787 62.1716 10.25 62.1243 10.137L62.2215 10.1055C62.2215 10.1055 62.366 10.4102 62.5919 10.5731L62.5289 10.6361C62.5289 10.6361 62.5131 10.6834 62.5604 10.6677C62.5604 10.6677 62.6418 10.5232 62.8651 10.5389C62.8651 10.5389 63.1383 10.5547 63.1226 10.7806V10.778Z" fill="#F78117"/>
<path d="M61.3362 11.2771C61.3362 11.2771 61.4991 11.2771 61.6908 11.1327C61.6908 11.1327 61.8668 11.0197 61.8826 10.7622C61.8826 10.7622 61.8826 10.665 61.8196 10.489C61.8196 10.489 61.7565 10.3445 61.7565 10.2158H61.5647C61.5647 10.2158 61.6777 10.4076 61.6777 10.6178C61.6777 10.6178 61.6935 10.9724 61.3388 11.1011V11.2771H61.3362Z" fill="#F78117"/>
<path d="M61.3283 10.1662V9.78C61.3283 9.78 61.8038 9.79576 62.1716 9.65128C62.1716 9.65128 62.3634 9.55408 62.4448 9.71432C62.4448 9.71432 62.542 9.85881 62.3634 9.98754C62.3634 9.98754 62.0008 10.1635 61.3257 10.1635L61.3283 10.1662Z" fill="#F78117"/>
<path d="M61.4491 10.2321H61.5122C61.5122 10.2321 61.6094 10.3924 61.6094 10.6341C61.6094 10.6341 61.5936 10.9388 61.3336 11.0518V10.9388C61.3336 10.9388 61.5437 10.8258 61.5437 10.5684C61.5437 10.5684 61.5437 10.3924 61.4465 10.2295L61.4491 10.2321Z" fill="#F78117"/>
<path d="M61.3362 10.8908V10.6807C61.3362 10.6807 61.3835 10.6807 61.3835 10.6176V10.2314C61.3835 10.2314 61.4649 10.3602 61.4807 10.5703C61.4807 10.5703 61.4728 10.7963 61.3362 10.8908Z" fill="#F78117"/>
<path d="M61.3283 15.4679V15.1789L61.1996 14.9688H61.0866L61.3283 15.4679Z" fill="#F78117"/>
<path d="M61.1129 14.913L61.3362 14.7344V14.8158L61.2075 14.913H61.1129Z" fill="#F78117"/>
<path d="M61.3362 15.1051L61.2416 14.9449L61.3362 14.8818V15.1051Z" fill="#F78117"/>
<path d="M61.1365 14.8241C61.1365 14.8241 61.1996 14.3906 61.168 13.9387C61.168 13.9387 61.168 13.4081 61.0236 13.085H61.1523L61.2968 13.2767V14.6927L61.1365 14.8214V14.8241Z" fill="#F78117"/>
<path d="M61.3362 13.2394L61.2075 13.0791H61.3362V13.2394Z" fill="#F78117"/>
<path d="M61.3362 12.8691L61.2075 13.0294H61.3362V12.8691Z" fill="#F78117"/>
<path d="M61.0157 13.0301H61.1444L61.3047 12.82V11.7744H61.0314C61.0314 11.7744 61.1286 12.0476 61.1129 12.5783C61.1129 12.5783 61.0971 12.8673 61.0157 13.0275V13.0301Z" fill="#F78117"/>
<path d="M60.5638 15.475C60.5638 15.475 60.6768 15.2018 60.5638 14.9443C60.5638 14.9443 60.4509 14.7342 60.1619 14.6238L60.2433 14.4951C60.2433 14.4951 60.774 14.7683 60.8055 15.0731C60.8055 15.0731 60.8528 15.362 60.5638 15.475Z" fill="#F78117"/>
<path d="M60.1146 14.3985C60.1146 14.3985 60.2433 14.4799 60.1619 14.5587C60.1619 14.5587 60.0174 14.6717 59.8414 14.5587C59.8414 14.5587 59.7442 14.4773 59.8572 14.3985C59.8572 14.3985 59.9202 14.2855 59.8099 14.3512C59.8099 14.3512 59.6496 14.4799 59.4395 14.3354C59.4395 14.3354 59.2293 14.1752 59.3764 13.9965C59.3764 13.9965 59.4395 13.965 59.5209 13.965C59.5209 13.965 59.5682 13.9019 59.4736 13.9019C59.4736 13.9019 59.1689 13.9991 58.9745 13.6445C58.9745 13.6445 58.8142 13.3398 59.2004 13.2426C59.2004 13.2426 59.2976 13.211 59.2004 13.1795C59.2004 13.1795 58.7512 13.2767 58.7013 12.8249C58.7013 12.8249 58.654 12.5044 59.0218 12.4387C59.0218 12.4387 59.119 12.3914 59.0218 12.3756C59.0218 12.3756 58.4911 12.3914 58.5069 11.7793C58.5069 11.7793 58.5226 11.3616 58.9088 11.2802C58.9088 11.2802 59.2792 11.2329 59.3764 11.619C59.3764 11.619 58.9429 11.4903 58.9429 11.845C58.9429 11.845 58.9429 12.0367 59.2319 12.0551C59.2319 12.0551 59.4237 12.0709 59.6181 11.7504L59.7153 11.5744L59.9071 11.6374C59.9071 11.6374 59.4395 12.1996 59.4736 12.9089C59.4736 12.9089 59.4263 13.7286 60.1172 14.4037L60.1146 14.3985Z" fill="#F78117"/>
<path d="M60.837 14.9925C60.837 14.9925 60.7556 14.7351 60.4666 14.5748C60.4666 14.5748 59.8703 14.3331 59.6312 13.4977C59.6312 13.4977 59.2451 12.6282 59.9517 11.6641L60.1619 11.6956C60.1619 11.6956 59.7757 12.0502 59.7757 12.6781C59.7757 12.6781 59.76 13.3848 60.3064 13.3848C60.3064 13.3848 60.5481 13.4005 60.6453 13.1116C60.6453 13.1116 60.7083 12.9198 60.6295 12.7411C60.6295 12.7411 60.9185 12.8226 60.9342 13.1588C60.9342 13.1588 60.95 13.5923 60.5638 13.6895C60.5638 13.6895 60.1146 13.7053 60.1619 13.9942C60.1619 13.9942 60.1461 14.1545 60.4824 14.4435C60.4824 14.4435 60.8029 14.6852 60.837 14.9899V14.9925Z" fill="#F78117"/>
<path d="M59.8414 12.5964C59.8414 12.5964 59.8414 12.05 60.2433 11.6953L60.485 11.7268C60.485 11.7268 59.9701 12.0316 59.8414 12.5964Z" fill="#F78117"/>
<path d="M61.3362 11.7451C61.3362 11.7451 60.3563 11.7136 59.6496 11.5192C59.6496 11.5192 59.4578 11.4378 59.5209 11.2617C59.5209 11.2617 59.5524 11.1015 59.7626 11.133C59.7626 11.133 60.5507 11.3432 61.3362 11.3432V11.7451Z" fill="#F78117"/>
<path d="M61.1286 11.277L60.9369 11.1641L60.8081 11.2613C60.8081 11.2613 60.9842 11.277 61.1286 11.277Z" fill="#F78117"/>
<path d="M60.5822 11.0039C60.5822 11.0039 60.6137 11.1326 60.6952 11.1642C60.6952 11.1642 60.7425 11.1484 60.8239 11.067L60.9211 11.1484C60.9211 11.1484 60.8081 11.2456 60.6794 11.2614C60.6794 11.2614 60.5665 11.2298 60.5034 11.0853L60.5848 11.0039H60.5822Z" fill="#F78117"/>
<path d="M60.5638 11.2461L60.4666 11.1016L60.3221 11.1988C60.3221 11.1988 60.4509 11.2303 60.5638 11.2461Z" fill="#F78117"/>
<path d="M60.7267 11.1017C60.7267 11.1017 60.6952 11.1175 60.6637 11.086C60.6637 11.086 60.6321 11.0387 60.6321 10.9573C60.6321 10.9573 60.6321 10.9257 60.6637 10.8942L60.7451 10.7812C60.7451 10.7812 60.7136 10.8443 60.7609 10.9415C60.7609 10.9415 60.8081 10.9888 60.7924 11.0387C60.7924 11.0387 60.7766 11.0702 60.7293 11.1017H60.7267Z" fill="#F78117"/>
<path d="M59.7757 11.0827C59.7757 11.0827 60.0016 11.1642 60.2433 11.1799C60.2433 11.1799 60.774 10.9881 60.8712 10.1974L60.7425 10.1816C60.7425 10.1816 60.6295 10.6493 60.3721 10.8568C60.3721 10.8568 60.1619 11.0486 59.7941 11.0328L59.7783 11.0801L59.7757 11.0827Z" fill="#F78117"/>
<path d="M59.5524 10.778C59.5524 10.778 59.5682 10.9882 59.9071 10.9882C59.9071 10.9882 60.2617 10.9566 60.4535 10.6992C60.4535 10.6992 60.6137 10.4733 60.6952 10.1685L60.598 10.1528C60.598 10.1528 60.5507 10.313 60.4693 10.4102C60.4693 10.4102 60.4062 10.4575 60.422 10.3787C60.422 10.3787 60.5034 10.25 60.5507 10.137L60.4535 10.1055C60.4535 10.1055 60.309 10.4102 60.0831 10.5731L60.1461 10.6361C60.1461 10.6361 60.1619 10.6834 60.1146 10.6677C60.1146 10.6677 60.0332 10.5232 59.8099 10.5389C59.8099 10.5389 59.5367 10.5547 59.5524 10.7806V10.778Z" fill="#F78117"/>
<path d="M61.3362 11.2771C61.3362 11.2771 61.1759 11.2771 60.9842 11.1327C60.9842 11.1327 60.8081 11.0197 60.7924 10.7622C60.7924 10.7622 60.7924 10.665 60.8554 10.489C60.8554 10.489 60.9185 10.3445 60.9185 10.2158H61.1103C61.1103 10.2158 60.9973 10.4076 60.9973 10.6178C60.9973 10.6178 60.9815 10.9724 61.3336 11.1011V11.2771H61.3362Z" fill="#F78117"/>
<path d="M61.3441 10.1662V9.78C61.3441 9.78 60.8712 9.79576 60.5008 9.65128C60.5008 9.65128 60.309 9.55408 60.2276 9.71432C60.2276 9.71432 60.1304 9.85881 60.309 9.98754C60.309 9.98754 60.6715 10.1635 61.3467 10.1635L61.3441 10.1662Z" fill="#F78117"/>
<path d="M61.2232 10.2314H61.1602C61.1602 10.2314 61.063 10.3917 61.063 10.6334C61.063 10.6334 61.0787 10.9381 61.3336 11.0537V10.9407C61.3336 10.9407 61.126 10.8278 61.126 10.5703C61.126 10.5703 61.126 10.3943 61.2232 10.2314Z" fill="#F78117"/>
<path d="M61.3388 10.8908V10.6807C61.3388 10.6807 61.2889 10.6807 61.2889 10.6176V10.2314C61.2889 10.2314 61.2075 10.3602 61.1917 10.5703C61.1917 10.5703 61.2075 10.7963 61.3362 10.8935L61.3388 10.8908Z" fill="#F78117"/>
<path d="M53.6022 7.75488H53.8938L54.1013 7.88361V7.99657L53.6022 7.75488Z" fill="#F78117"/>
<path d="M54.1591 7.973L54.3351 7.74707H54.2537L54.1591 7.8758V7.973Z" fill="#F78117"/>
<path d="M53.9647 7.74707L54.1249 7.84427L54.1906 7.74707H53.9647Z" fill="#F78117"/>
<path d="M54.2458 7.94638C54.2458 7.94638 54.6792 7.88333 55.1311 7.91486C55.1311 7.91486 55.6618 7.91486 55.9849 8.05935V7.93062L55.7931 7.78613H54.3771L54.2484 7.94638H54.2458Z" fill="#F78117"/>
<path d="M55.8299 7.74707L55.9928 7.8758V7.74707H55.8299Z" fill="#F78117"/>
<path d="M56.2003 7.74707L56.0401 7.8758V7.74707H56.2003Z" fill="#F78117"/>
<path d="M56.0401 8.06729V7.93857L56.2502 7.77832H57.2958V8.05153C57.2958 8.05153 57.0226 7.95433 56.4919 7.97009C56.4919 7.97009 56.2029 7.98586 56.0427 8.06729H56.0401Z" fill="#F78117"/>
<path d="M53.5943 8.51898C53.5943 8.51898 53.8675 8.40601 54.1249 8.51898C54.1249 8.51898 54.3351 8.63194 54.4454 8.92091L54.5742 8.83948C54.5742 8.83948 54.301 8.30881 53.9962 8.27729C53.9962 8.27729 53.7072 8.23 53.5943 8.51898Z" fill="#F78117"/>
<path d="M54.674 8.96785C54.674 8.96785 54.5926 8.83912 54.5137 8.92056C54.5137 8.92056 54.4008 9.06505 54.5137 9.24106C54.5137 9.24106 54.5952 9.33826 54.674 9.2253C54.674 9.2253 54.787 9.16225 54.7213 9.27258C54.7213 9.27258 54.5926 9.43283 54.737 9.643C54.737 9.643 54.8973 9.85316 55.0759 9.70604C55.0759 9.70604 55.1075 9.643 55.1075 9.56156C55.1075 9.56156 55.1705 9.51427 55.1705 9.60884C55.1705 9.60884 55.0733 9.91358 55.428 10.108C55.428 10.108 55.7327 10.2682 55.8299 9.88206C55.8299 9.88206 55.8614 9.78486 55.8929 9.88206C55.8929 9.88206 55.7957 10.3313 56.2476 10.3812C56.2476 10.3812 56.5681 10.4285 56.6338 10.0607C56.6338 10.0607 56.6811 9.96349 56.6968 10.0607C56.6968 10.0607 56.6811 10.5914 57.2932 10.5756C57.2932 10.5756 57.7109 10.5598 57.7923 10.1737C57.7923 10.1737 57.8396 9.80325 57.4534 9.70604C57.4534 9.70604 57.5821 10.1395 57.2275 10.1395C57.2275 10.1395 57.0357 10.1395 57.0173 9.85053C57.0173 9.85053 57.0016 9.65876 57.3221 9.46436L57.4981 9.36716L57.435 9.17538C57.435 9.17538 56.8728 9.643 56.1635 9.60884C56.1635 9.60884 55.3439 9.65613 54.6687 8.96522L54.674 8.96785Z" fill="#F78117"/>
<path d="M54.0777 8.24573C54.0777 8.24573 54.3351 8.32717 54.4954 8.61614C54.4954 8.61614 54.737 9.21248 55.5724 9.45154C55.5724 9.45154 56.442 9.83771 57.4061 9.13104L57.3746 8.92088C57.3746 8.92088 57.0199 9.30705 56.3921 9.30705C56.3921 9.30705 55.6854 9.32281 55.6854 8.77639C55.6854 8.77639 55.6696 8.5347 55.9586 8.4375C55.9586 8.4375 56.1504 8.37445 56.329 8.45326C56.329 8.45326 56.2476 8.16429 55.9113 8.14853C55.9113 8.14853 55.4779 8.13276 55.3807 8.51894C55.3807 8.51894 55.3649 8.96816 55.0759 8.92088C55.0759 8.92088 54.9157 8.93664 54.6267 8.60038C54.6267 8.60038 54.385 8.27988 54.0803 8.24573H54.0777Z" fill="#F78117"/>
<path d="M56.4735 9.24128C56.4735 9.24128 57.0199 9.24128 57.3746 8.83934L57.3431 8.59766C57.3431 8.59766 57.0383 9.11256 56.4735 9.24128Z" fill="#F78117"/>
<path d="M57.3273 7.74384C57.3273 7.74384 57.3588 8.72635 57.5532 9.43303C57.5532 9.43303 57.6347 9.6248 57.8107 9.56175C57.8107 9.56175 57.9709 9.53023 57.9394 9.32006C57.9394 9.32006 57.7292 8.53195 57.7292 7.74121H57.3273V7.74384Z" fill="#F78117"/>
<path d="M57.7949 7.9541L57.9079 8.14588L57.8107 8.2746C57.8107 8.2746 57.7949 8.09859 57.7949 7.9541Z" fill="#F78117"/>
<path d="M58.0681 8.50295C58.0681 8.50295 57.9394 8.47143 57.9079 8.38999C57.9079 8.38999 57.9236 8.3427 58.0051 8.26126L57.9236 8.16406C57.9236 8.16406 57.8264 8.27703 57.8107 8.40575C57.8107 8.40575 57.8422 8.51871 57.9867 8.58176L58.0681 8.50032V8.50295Z" fill="#F78117"/>
<path d="M57.8264 8.51855L57.9709 8.61575L57.8737 8.76024C57.8737 8.76024 57.8422 8.63152 57.8264 8.51855Z" fill="#F78117"/>
<path d="M57.9709 8.356C57.9709 8.356 57.9552 8.38753 57.9867 8.41905C57.9867 8.41905 58.034 8.45058 58.1154 8.45058C58.1154 8.45058 58.147 8.45058 58.1785 8.41905L58.2914 8.33761C58.2914 8.33761 58.2284 8.36914 58.1312 8.32185C58.1312 8.32185 58.0839 8.27456 58.034 8.29033C58.034 8.29033 58.0025 8.30609 57.9709 8.35338V8.356Z" fill="#F78117"/>
<path d="M57.9867 9.30739C57.9867 9.30739 57.9053 9.08147 57.8895 8.83978C57.8895 8.83978 58.0813 8.30911 58.872 8.21191L58.8878 8.34064C58.8878 8.34064 58.4202 8.4536 58.2126 8.71105C58.2126 8.71105 58.0208 8.92122 58.0366 9.289L57.9893 9.30476L57.9867 9.30739Z" fill="#F78117"/>
<path d="M58.2914 9.53046C58.2914 9.53046 58.0813 9.5147 58.0813 9.17581C58.0813 9.17581 58.1128 8.82116 58.3702 8.62938C58.3702 8.62938 58.5962 8.46913 58.9009 8.3877L58.9167 8.4849C58.9167 8.4849 58.7564 8.53218 58.6592 8.61362C58.6592 8.61362 58.6119 8.67667 58.6907 8.66091C58.6907 8.66091 58.8195 8.57947 58.9324 8.53218L58.964 8.62938C58.964 8.62938 58.6592 8.77387 58.4963 8.9998L58.4333 8.93675C58.4333 8.93675 58.386 8.92098 58.4018 8.96827C58.4018 8.96827 58.5463 9.04971 58.5305 9.27301C58.5305 9.27301 58.5147 9.54622 58.2888 9.53046H58.2914Z" fill="#F78117"/>
<path d="M57.7949 7.74414C57.7949 7.74414 57.7949 7.90702 57.9394 8.09879C57.9394 8.09879 58.0524 8.2748 58.3098 8.29057C58.3098 8.29057 58.407 8.29057 58.583 8.22752C58.583 8.22752 58.7275 8.16447 58.8562 8.16447V7.97269C58.8562 7.97269 58.6645 8.08566 58.4543 8.08566C58.4543 8.08566 58.0997 8.10142 57.9709 7.74677H57.7949V7.74414Z" fill="#F78117"/>
<path d="M58.9035 7.73895H59.2897C59.2897 7.73895 59.2739 8.21445 59.4184 8.58224C59.4184 8.58224 59.5156 8.77401 59.3554 8.85545C59.3554 8.85545 59.2109 8.95265 59.0822 8.77401C59.0822 8.77401 58.9062 8.41148 58.9062 7.73633L58.9035 7.73895Z" fill="#F78117"/>
<path d="M58.8379 7.85973V7.92278C58.8379 7.92278 58.6776 8.01998 58.4359 8.01998C58.4359 8.01998 58.1312 8.00422 58.0182 7.74414H58.1312C58.1312 7.74414 58.2442 7.9543 58.5016 7.9543C58.5016 7.9543 58.6776 7.9543 58.8405 7.8571L58.8379 7.85973Z" fill="#F78117"/>
<path d="M58.1785 7.74707H58.3886C58.3886 7.74707 58.3886 7.79436 58.4517 7.79436H58.8379C58.8379 7.79436 58.7091 7.8758 58.499 7.89156C58.499 7.89156 58.273 7.88368 58.1785 7.74707Z" fill="#F78117"/>
<path d="M53.6022 7.73876H53.8938L54.1013 7.61003V7.49707L53.6022 7.73876Z" fill="#F78117"/>
<path d="M54.1591 7.52051L54.3351 7.74643H54.2537L54.1591 7.61771V7.52051Z" fill="#F78117"/>
<path d="M53.9647 7.74661L54.1249 7.64941L54.1906 7.74661H53.9647Z" fill="#F78117"/>
<path d="M54.2458 7.5446C54.2458 7.5446 54.6792 7.60765 55.1311 7.57613C55.1311 7.57613 55.6618 7.57613 55.9849 7.43164V7.56037L55.7931 7.70485H54.3771L54.2484 7.5446H54.2458Z" fill="#F78117"/>
<path d="M55.8299 7.74689L55.9928 7.61816V7.74689H55.8299Z" fill="#F78117"/>
<path d="M56.2003 7.74689L56.0401 7.61816V7.74689H56.2003Z" fill="#F78117"/>
<path d="M56.0401 7.42383V7.55255L56.2502 7.7128H57.2958V7.43959C57.2958 7.43959 57.0226 7.53679 56.4919 7.52103C56.4919 7.52103 56.2029 7.50527 56.0427 7.42383H56.0401Z" fill="#F78117"/>
<path d="M53.5943 6.9742C53.5943 6.9742 53.8675 7.08717 54.1249 6.9742C54.1249 6.9742 54.3351 6.86124 54.4454 6.57227L54.5742 6.6537C54.5742 6.6537 54.301 7.18437 53.9962 7.21589C53.9962 7.21589 53.7072 7.26318 53.5943 6.9742Z" fill="#F78117"/>
<path d="M54.674 6.52509C54.674 6.52509 54.5926 6.65381 54.5137 6.57237C54.5137 6.57237 54.4008 6.42789 54.5137 6.25187C54.5137 6.25187 54.5952 6.15467 54.674 6.26764C54.674 6.26764 54.787 6.33069 54.7213 6.22035C54.7213 6.22035 54.5926 6.0601 54.737 5.84994C54.737 5.84994 54.8973 5.63977 55.0759 5.78689C55.0759 5.78689 55.1075 5.84994 55.1075 5.93137C55.1075 5.93137 55.1705 5.97866 55.1705 5.88409C55.1705 5.88409 55.0733 5.57935 55.428 5.38495C55.428 5.38495 55.7327 5.2247 55.8299 5.61088C55.8299 5.61088 55.8614 5.70808 55.8929 5.61088C55.8929 5.61088 55.7957 5.16165 56.2476 5.11174C56.2476 5.11174 56.5681 5.06445 56.6338 5.43224C56.6338 5.43224 56.6811 5.52944 56.6968 5.43224C56.6968 5.43224 56.6811 4.90157 57.2932 4.91734C57.2932 4.91734 57.7109 4.9331 57.7923 5.31927C57.7923 5.31927 57.8396 5.68969 57.4534 5.78689C57.4534 5.78689 57.5821 5.35343 57.2275 5.35343C57.2275 5.35343 57.0357 5.35343 57.0173 5.6424C57.0173 5.6424 57.0016 5.83417 57.3221 6.02858L57.4981 6.12578L57.435 6.31755C57.435 6.31755 56.8728 5.84994 56.1635 5.88409C56.1635 5.88409 55.3439 5.8368 54.6687 6.52771L54.674 6.52509Z" fill="#F78117"/>
<path d="M54.0777 7.24764C54.0777 7.24764 54.3351 7.16621 54.4954 6.87723C54.4954 6.87723 54.737 6.28089 55.5724 6.04183C55.5724 6.04183 56.442 5.65566 57.4061 6.36233L57.3746 6.57249C57.3746 6.57249 57.0199 6.18632 56.3921 6.18632C56.3921 6.18632 55.6854 6.17056 55.6854 6.71698C55.6854 6.71698 55.6696 6.95867 55.9586 7.05587C55.9586 7.05587 56.1504 7.11892 56.329 7.04011C56.329 7.04011 56.2476 7.32908 55.9113 7.34484C55.9113 7.34484 55.4779 7.36061 55.3807 6.97443C55.3807 6.97443 55.3649 6.52521 55.0759 6.57249C55.0759 6.57249 54.9157 6.55673 54.6267 6.89299C54.6267 6.89299 54.385 7.21349 54.0803 7.24764H54.0777Z" fill="#F78117"/>
<path d="M56.4735 6.24902C56.4735 6.24902 57.0199 6.24902 57.3746 6.65096L57.3431 6.89265C57.3431 6.89265 57.0383 6.37775 56.4735 6.24902Z" fill="#F78117"/>
<path d="M57.3273 7.74402C57.3273 7.74402 57.3588 6.76414 57.5532 6.05746C57.5532 6.05746 57.6347 5.86569 57.8107 5.92874C57.8107 5.92874 57.9709 5.96026 57.9394 6.17043C57.9394 6.17043 57.7292 6.95854 57.7292 7.74402H57.3273Z" fill="#F78117"/>
<path d="M57.7949 7.53632L57.9079 7.34455L57.8107 7.21582C57.8107 7.21582 57.7949 7.39183 57.7949 7.53632Z" fill="#F78117"/>
<path d="M58.0681 6.98994C58.0681 6.98994 57.9394 7.02147 57.9079 7.10291C57.9079 7.10291 57.9236 7.15019 58.0051 7.23163L57.9236 7.32883C57.9236 7.32883 57.8264 7.21587 57.8107 7.08714C57.8107 7.08714 57.8422 6.97418 57.9867 6.91113L58.0681 6.99257V6.98994Z" fill="#F78117"/>
<path d="M57.8264 6.97411L57.9709 6.87691L57.8737 6.73242C57.8737 6.73242 57.8422 6.86115 57.8264 6.97411Z" fill="#F78117"/>
<path d="M57.9709 7.13461C57.9709 7.13461 57.9552 7.10309 57.9867 7.07156C57.9867 7.07156 58.034 7.04004 58.1154 7.04004C58.1154 7.04004 58.147 7.04004 58.1785 7.07156L58.2914 7.153C58.2914 7.153 58.2284 7.12148 58.1312 7.16876C58.1312 7.16876 58.0839 7.21605 58.034 7.20029C58.034 7.20029 58.0025 7.18453 57.9709 7.13724V7.13461Z" fill="#F78117"/>
<path d="M57.9867 6.18652C57.9867 6.18652 57.9053 6.41245 57.8895 6.65414C57.8895 6.65414 58.0813 7.1848 58.872 7.282L58.8878 7.15328C58.8878 7.15328 58.4202 7.04031 58.2126 6.78286C58.2126 6.78286 58.0208 6.5727 58.0366 6.20491L57.9893 6.18915L57.9867 6.18652Z" fill="#F78117"/>
<path d="M58.2914 5.96062C58.2914 5.96062 58.0813 5.97638 58.0813 6.31527C58.0813 6.31527 58.1128 6.66992 58.3702 6.86169C58.3702 6.86169 58.5962 7.02194 58.9009 7.10338L58.9167 7.00618C58.9167 7.00618 58.7564 6.95889 58.6592 6.87746C58.6592 6.87746 58.6119 6.81441 58.6907 6.83017C58.6907 6.83017 58.8195 6.91161 58.9324 6.95889L58.964 6.86169C58.964 6.86169 58.6592 6.71721 58.4963 6.49128L58.4333 6.55433C58.4333 6.55433 58.386 6.57009 58.4018 6.5228C58.4018 6.5228 58.5463 6.44137 58.5305 6.21807C58.5305 6.21807 58.5147 5.94486 58.2888 5.96062H58.2914Z" fill="#F78117"/>
<path d="M57.7949 7.74399C57.7949 7.74399 57.7949 7.58374 57.9394 7.39197C57.9394 7.39197 58.0524 7.21596 58.3098 7.2002C58.3098 7.2002 58.407 7.2002 58.583 7.26324C58.583 7.26324 58.7275 7.32629 58.8562 7.32629V7.51807C58.8562 7.51807 58.6645 7.4051 58.4543 7.4051C58.4543 7.4051 58.0997 7.38934 57.9709 7.74137H57.7949V7.74399Z" fill="#F78117"/>
<path d="M58.9035 7.75422H59.2897C59.2897 7.75422 59.2739 7.28135 59.4184 6.91094C59.4184 6.91094 59.5156 6.71916 59.3554 6.63773C59.3554 6.63773 59.2109 6.54052 59.0822 6.71916C59.0822 6.71916 58.9062 7.0817 58.9062 7.75685L58.9035 7.75422Z" fill="#F78117"/>
<path d="M58.8379 7.63388V7.57083C58.8379 7.57083 58.6776 7.47363 58.4359 7.47363C58.4359 7.47363 58.1312 7.48939 58.0156 7.74422H58.1286C58.1286 7.74422 58.2415 7.53668 58.499 7.53668C58.499 7.53668 58.675 7.53668 58.8379 7.63388Z" fill="#F78117"/>
<path d="M58.1785 7.74672H58.3886C58.3886 7.74672 58.3886 7.69681 58.4517 7.69681H58.8379C58.8379 7.69681 58.7091 7.61537 58.499 7.59961C58.499 7.59961 58.273 7.61537 58.1758 7.7441L58.1785 7.74672Z" fill="#F78117"/>
<path d="M61.3362 9.39961C62.3025 9.39961 63.0858 8.61628 63.0858 7.65C63.0858 6.68372 62.3025 5.90039 61.3362 5.90039C60.3699 5.90039 59.5866 6.68372 59.5866 7.65C59.5866 8.61628 60.3699 9.39961 61.3362 9.39961Z" fill="#F78117"/>
</g>
<defs>
<clipPath id="clip0_1_615">
<rect width="109.637" height="64" fill="white"/>
</clipPath>
</defs>
</svg>
