<svg width="150" height="150" viewBox="0 0 150 150" fill="none" xmlns="http://www.w3.org/2000/svg">
<g clip-path="url(#clip0_1_924)">
<path d="M79.4369 0C82.3817 0.391226 85.3305 0.747242 88.2675 1.1815C100.646 3.02027 116.428 10.7157 124.632 18.8219C119.67 23.7748 114.709 28.7316 109.739 33.7002C93.006 20.7937 74.4048 17.1787 54.5152 25.4062C34.6844 33.6102 24.0484 49.2397 21.174 70.5733H0V69.4035C0.0861529 69.0279 0.223214 68.6563 0.254543 68.2729C0.986842 59.8419 3.01927 51.7279 6.66902 44.1029C17.9511 20.555 36.4427 6.19311 62.1162 1.1502C64.83 0.618137 67.6026 0.375577 70.3517 0C73.3788 0 76.4098 0 79.4369 0Z" fill="#004F95"/>
<path d="M0 79.3604H20.99C25.6853 107.881 42.0896 124.273 70.5357 128.999V150C67.8258 149.664 65.112 149.48 62.4608 148.979C38.248 144.402 20.2146 131.272 8.46648 109.653C3.7359 100.936 1.09258 91.5392 0.258459 81.6451C0.22713 81.2695 0.0900689 80.9018 0 80.534V79.3643V79.3604Z" fill="#3DA5D9"/>
<path d="M79.5034 149.949V128.71C90.8678 127.669 100.987 123.491 109.649 116.28C114.669 121.304 119.623 126.26 124.671 131.307C111.897 142.453 96.8554 148.725 79.5073 149.945L79.5034 149.949Z" fill="#73BFB8"/>
<path d="M131.32 124.688C126.296 119.668 121.338 114.715 116.283 109.664C123.473 101.022 127.682 90.9795 128.752 79.5322H150C148.849 96.754 142.54 111.773 131.32 124.688V124.688Z" fill="#FEC601"/>
<path d="M123.207 50.3548C120.853 46.8572 118.601 43.5122 116.389 40.2299C121.256 35.3669 126.218 30.414 131.258 25.375C135.761 30.3944 139.521 36.0124 142.603 42.319C136.051 45.0341 129.597 47.7101 123.207 50.3587V50.3548Z" fill="#EA7317"/>
<path d="M150 70.5573H128.983C128.184 66.5668 127.393 62.631 126.562 58.4879C132.852 55.8824 139.313 53.2064 145.959 50.4521C148.297 56.9582 149.546 63.5973 149.996 70.5573H150Z" fill="#EA7317"/>
</g>
<defs>
<clipPath id="clip0_1_924">
<rect width="150" height="150" fill="white"/>
</clipPath>
</defs>
</svg>
