<svg width="35" height="34" viewBox="0 0 35 34" fill="none" xmlns="http://www.w3.org/2000/svg">
<path d="M29.4503 14.0869C29.4503 14.6392 29.898 15.0869 30.4503 15.0869C31.0025 15.0869 31.4503 14.6392 31.4503 14.0869H29.4503ZM17.3613 1V0V1ZM3.27225 14.0869C3.27225 14.6392 3.71997 15.0869 4.27225 15.0869C4.82454 15.0869 5.27225 14.6392 5.27225 14.0869H3.27225ZM1 18.278L0 18.2779V18.278H1ZM3.47873 15.1045L3.72119 16.0746L3.72175 16.0745L3.47873 15.1045ZM6.32559 14.3912L6.08396 13.4208L6.08256 13.4212L6.32559 14.3912ZM7.5445 15.3433H8.5445V15.3429L7.5445 15.3433ZM7.5445 24.28H6.5445L6.5445 24.2818L7.5445 24.28ZM6.32395 25.2337L6.56725 24.2638L6.56645 24.2636L6.32395 25.2337ZM3.47709 24.5221L3.23413 25.4922L3.23459 25.4923L3.47709 24.5221ZM1 21.3486H0V21.3486L1 21.3486ZM33.7225 18.278H34.7225V18.2779L33.7225 18.278ZM31.2438 15.1045L31.0008 16.0745L31.0013 16.0746L31.2438 15.1045ZM28.3969 14.3912L28.6399 13.4212L28.6385 13.4208L28.3969 14.3912ZM27.178 15.3433L26.178 15.3429V15.3433H27.178ZM27.178 24.28L28.178 24.2813V24.28H27.178ZM28.3969 25.2337L28.6386 26.2041L28.6394 26.2039L28.3969 25.2337ZM31.2438 24.5221L31.0013 23.552L31.0013 23.552L31.2438 24.5221ZM33.7225 21.3486L34.7225 21.3487V21.3486H33.7225ZM12.4529 29.6277H11.4529H12.4529ZM22.2696 29.6277H23.2696H22.2696ZM31.4503 14.0869C31.4503 10.3508 29.9658 6.76772 27.3236 4.12592L25.9095 5.54024C28.1766 7.80699 29.4503 10.8813 29.4503 14.0869H31.4503ZM27.3236 4.12592C24.6814 1.48412 21.0978 0 17.3613 0V2C20.5675 2 23.6424 3.27348 25.9095 5.54024L27.3236 4.12592ZM17.3613 0C13.6247 0 10.0411 1.48412 7.39888 4.12592L8.81298 5.54024C11.0801 3.27348 14.155 2 17.3613 2V0ZM7.39888 4.12592C4.75666 6.76772 3.27225 10.3508 3.27225 14.0869H5.27225C5.27225 10.8813 6.54587 7.80699 8.81298 5.54024L7.39888 4.12592ZM2 18.2782C2.00008 17.7716 2.16949 17.2796 2.48133 16.8804L0.905134 15.6493C0.318744 16.4001 0.000144243 17.3253 0 18.2779L2 18.2782ZM2.48133 16.8804C2.79318 16.4811 3.22959 16.1975 3.72119 16.0746L3.23627 14.1343C2.31204 14.3653 1.49152 14.8985 0.905134 15.6493L2.48133 16.8804ZM3.72175 16.0745L6.56861 15.3612L6.08256 13.4212L3.23571 14.1344L3.72175 16.0745ZM6.56722 15.3616C6.56454 15.3623 6.56175 15.3623 6.55905 15.3617L6.97502 13.4055C6.68068 13.3429 6.37596 13.3481 6.08396 13.4208L6.56722 15.3616ZM6.55905 15.3617C6.55635 15.3612 6.5538 15.36 6.55161 15.3583L7.78273 13.7821C7.54558 13.5968 7.26935 13.468 6.97502 13.4055L6.55905 15.3617ZM6.55161 15.3583C6.54941 15.3565 6.54762 15.3543 6.54638 15.3518L8.34374 14.4746C8.21175 14.2041 8.01989 13.9673 7.78273 13.7821L6.55161 15.3583ZM6.54638 15.3518C6.54515 15.3493 6.5445 15.3465 6.5445 15.3437L8.5445 15.3429C8.54439 15.042 8.47573 14.745 8.34374 14.4746L6.54638 15.3518ZM6.5445 15.3433V24.28H8.5445V15.3433H6.5445ZM6.5445 24.2818C6.5445 24.2789 6.54514 24.2761 6.54638 24.2736L8.34472 25.1488C8.47669 24.8776 8.54502 24.5799 8.5445 24.2783L6.5445 24.2818ZM6.54638 24.2736C6.54761 24.2711 6.5494 24.2688 6.5516 24.2671L7.78302 25.8431C8.02064 25.6574 8.21276 25.4199 8.34472 25.1488L6.54638 24.2736ZM6.5516 24.2671C6.5538 24.2654 6.55635 24.2642 6.55906 24.2636L6.97353 26.2202C7.26853 26.1577 7.54539 26.0288 7.78302 25.8431L6.5516 24.2671ZM6.55906 24.2636C6.56178 24.2631 6.56458 24.2631 6.56725 24.2638L6.08065 26.2037C6.37313 26.2771 6.67851 26.2827 6.97353 26.2202L6.55906 24.2636ZM6.56645 24.2636L3.71959 23.552L3.23459 25.4923L6.08145 26.2039L6.56645 24.2636ZM3.72006 23.5521C3.22866 23.429 2.79252 23.1453 2.48089 22.7461L0.904292 23.9767C1.49026 24.7274 2.3103 25.2608 3.23413 25.4922L3.72006 23.5521ZM2.48089 22.7461C2.16926 22.3468 2.00001 21.8549 2 21.3485L0 21.3486C2.5034e-05 22.3009 0.318318 23.2259 0.904292 23.9767L2.48089 22.7461ZM34.7225 18.2779C34.7224 17.3253 34.4038 16.4001 33.8174 15.6493L32.2412 16.8804C32.553 17.2796 32.7224 17.7716 32.7225 18.2782L34.7225 18.2779ZM33.8174 15.6493C33.231 14.8985 32.4105 14.3653 31.4862 14.1343L31.0013 16.0746C31.4929 16.1975 31.9293 16.4811 32.2412 16.8804L33.8174 15.6493ZM31.4868 14.1344L28.6399 13.4212L28.1539 15.3612L31.0008 16.0745L31.4868 14.1344ZM28.6385 13.4208C28.3466 13.3481 28.0418 13.3429 27.7475 13.4055L28.1635 15.3617C28.1608 15.3623 28.158 15.3623 28.1553 15.3616L28.6385 13.4208ZM27.7475 13.4055C27.4532 13.468 27.1769 13.5968 26.9398 13.7821L28.1709 15.3583C28.1687 15.36 28.1662 15.3612 28.1635 15.3617L27.7475 13.4055ZM26.9398 13.7821C26.7026 13.9673 26.5108 14.2042 26.3788 14.4746L28.1761 15.3518C28.1749 15.3543 28.1731 15.3565 28.1709 15.3583L26.9398 13.7821ZM26.3788 14.4746C26.2468 14.745 26.1781 15.042 26.178 15.3429L28.178 15.3437C28.178 15.3465 28.1774 15.3493 28.1761 15.3518L26.3788 14.4746ZM26.178 15.3433V24.28H28.178V15.3433H26.178ZM26.178 24.2787C26.1776 24.58 26.2459 24.8773 26.3777 25.1482L28.1761 24.2732C28.1774 24.2757 28.178 24.2785 28.178 24.2813L26.178 24.2787ZM26.3777 25.1482C26.5095 25.419 26.7013 25.6563 26.9385 25.8419L28.1709 24.2667C28.1731 24.2684 28.1749 24.2706 28.1761 24.2732L26.3777 25.1482ZM26.9385 25.8419C27.1757 26.0275 27.4521 26.1566 27.7467 26.2193L28.1635 24.2632C28.1662 24.2638 28.1687 24.265 28.1709 24.2667L26.9385 25.8419ZM27.7467 26.2193C28.0413 26.2821 28.3463 26.2769 28.6386 26.2041L28.1553 24.2634C28.158 24.2627 28.1608 24.2627 28.1635 24.2632L27.7467 26.2193ZM28.6394 26.2039L31.4863 25.4923L31.0013 23.552L28.1544 24.2636L28.6394 26.2039ZM31.4862 25.4923C32.4105 25.2613 33.231 24.7281 33.8174 23.9773L32.2412 22.7462C31.9293 23.1455 31.4929 23.4291 31.0013 23.552L31.4862 25.4923ZM33.8174 23.9773C34.4038 23.2266 34.7224 22.3013 34.7225 21.3487L32.7225 21.3484C32.7224 21.855 32.553 22.347 32.2412 22.7462L33.8174 23.9773ZM29.4503 25.538V26.356H31.4503V25.538H29.4503ZM29.4503 26.356C29.4503 26.9584 29.2109 27.5362 28.7848 27.9623L30.1989 29.3766C31.0001 28.5755 31.4503 27.4889 31.4503 26.356H29.4503ZM28.7848 27.9623C28.3587 28.3883 27.7807 28.6277 27.178 28.6277V30.6277C28.311 30.6277 29.3977 30.1777 30.1989 29.3766L28.7848 27.9623ZM27.178 28.6277H21.4516V30.6277H27.178V28.6277ZM19.8154 31.0815H14.9071V33.0815H19.8154V31.0815ZM14.9071 31.0815C14.5213 31.0815 14.1514 30.9283 13.8787 30.6556L12.4646 32.07C13.1124 32.7176 13.991 33.0815 14.9071 33.0815V31.0815ZM13.8787 30.6556C13.606 30.383 13.4529 30.0132 13.4529 29.6277H11.4529C11.4529 30.5437 11.8168 31.4223 12.4646 32.07L13.8787 30.6556ZM13.4529 29.6277C13.4529 29.2422 13.606 28.8724 13.8787 28.5998L12.4646 27.1854C11.8168 27.8331 11.4529 28.7116 11.4529 29.6277H13.4529ZM13.8787 28.5998C14.1514 28.3271 14.5213 28.1739 14.9071 28.1739V26.1739C13.991 26.1739 13.1124 26.5377 12.4646 27.1854L13.8787 28.5998ZM14.9071 28.1739H19.8154V26.1739H14.9071V28.1739ZM19.8154 28.1739C20.2012 28.1739 20.5711 28.3271 20.8438 28.5998L22.2579 27.1854C21.6101 26.5377 20.7315 26.1739 19.8154 26.1739V28.1739ZM20.8438 28.5998C21.1165 28.8724 21.2696 29.2422 21.2696 29.6277H23.2696C23.2696 28.7116 22.9057 27.8331 22.2579 27.1854L20.8438 28.5998ZM21.2696 29.6277C21.2696 30.0132 21.1165 30.383 20.8438 30.6556L22.2579 32.07C22.9057 31.4223 23.2696 30.5437 23.2696 29.6277H21.2696ZM20.8438 30.6556C20.5711 30.9283 20.2012 31.0815 19.8154 31.0815V33.0815C20.7315 33.0815 21.6101 32.7176 22.2579 32.07L20.8438 30.6556ZM2 21.3486V18.278H0V21.3486H2ZM34.7225 21.3486V18.278H32.7225V21.3486H34.7225Z" fill="#F78117"/>
</svg>
