<svg width="32" height="27" viewBox="0 0 32 27" fill="none" xmlns="http://www.w3.org/2000/svg">
<path d="M0 19.1833C0.235589 18.6291 0.655763 18.4147 1.25243 18.4487C1.79485 18.4794 2.3397 18.4552 2.9145 18.4552C2.9145 18.32 2.9145 18.2116 2.9145 18.104C2.9145 16.6476 2.91369 15.1921 2.9145 13.7357C2.9145 13.01 3.29258 12.6305 4.01634 12.6305C7.40607 12.6305 10.7958 12.6305 14.1847 12.6305H14.5563V8.74685C14.1596 8.74685 13.7597 8.74685 13.3597 8.74685C13.1169 8.74685 12.874 8.75252 12.6311 8.74523C12.0822 8.72986 11.6629 8.32855 11.6612 7.78403C11.654 5.8325 11.6531 3.88097 11.6612 1.92944C11.6637 1.39624 12.0774 0.986035 12.6117 0.983607C14.5644 0.975516 16.5171 0.975516 18.4698 0.983607C19.0139 0.986035 19.4243 1.40676 19.426 1.95695C19.4324 3.88825 19.4324 5.81956 19.426 7.75086C19.4243 8.33502 19.0139 8.73876 18.4277 8.74523C17.8019 8.75252 17.1769 8.74685 16.5325 8.74685V12.6305H16.8984C20.2679 12.6305 23.6374 12.6305 27.0061 12.6305C27.81 12.6305 28.1711 12.9914 28.1719 13.7956C28.1719 15.3321 28.1719 16.8693 28.1719 18.456H28.8625C29.1863 18.456 29.5117 18.4778 29.8331 18.4511C30.4314 18.4026 30.8467 18.6356 31.0864 19.1842V25.4951C30.8476 26.0453 30.4298 26.2402 29.834 26.2322C28.0334 26.2079 26.2321 26.2241 24.4316 26.2233C23.6941 26.2233 23.3152 25.8422 23.3152 25.101C23.3152 23.2709 23.3152 21.4407 23.3152 19.6105C23.3152 18.8201 23.6755 18.4568 24.4591 18.4568C25.042 18.4568 25.6249 18.4568 26.207 18.4568V14.5877H16.5325V18.4568C17.1858 18.4568 17.8214 18.4495 18.4569 18.4592C19.0058 18.4673 19.4235 18.8735 19.4251 19.4204C19.4324 21.3719 19.4332 23.3235 19.4243 25.275C19.4219 25.8058 19.005 26.2176 18.4723 26.22C16.5195 26.2281 14.5668 26.2281 12.6141 26.22C12.0701 26.2176 11.6612 25.7952 11.6596 25.2451C11.654 23.3041 11.6531 21.3622 11.6596 19.4212C11.662 18.8718 12.0749 18.4713 12.6263 18.4584C13.0311 18.4495 13.4358 18.4568 13.8406 18.456C14.0787 18.456 14.3175 18.456 14.5466 18.456V14.5893H4.87855V18.456C5.48493 18.456 6.07026 18.456 6.65558 18.456C7.39554 18.4568 7.77119 18.8346 7.772 19.579C7.77281 21.4189 7.77281 23.2595 7.772 25.0994C7.772 25.8454 7.39797 26.2224 6.65639 26.2224C4.85588 26.2233 3.05456 26.2071 1.25404 26.2313C0.656572 26.2394 0.238827 26.0453 0.000809583 25.4943V19.1833H0Z" fill="#F78117"/>
</svg>
