<svg width="36" height="32" viewBox="0 0 36 32" fill="none" xmlns="http://www.w3.org/2000/svg">
<path d="M19.758 1.67272L19.7556 1.67052C18.7564 0.776495 17.2364 0.776494 16.2372 1.67051L16.2347 1.67273L2.60756 13.947C1.37638 15.0399 2.13219 17.1113 3.81171 17.1113H5.58343V27.5243C5.58343 28.9733 6.76483 30.1547 8.21385 30.1547H13.1051C14.5541 30.1547 15.7355 28.9733 15.7355 27.5243V20.3721H20.2572V27.5243C20.2572 28.9733 21.4386 30.1547 22.8876 30.1547H27.7789C29.2279 30.1547 30.4093 28.9733 30.4093 27.5243V17.1113H32.181C33.8144 17.1113 34.6713 15.0646 33.3807 13.9429L19.758 1.67272Z" stroke="white" stroke-width="2"/>
</svg>
