<svg width="24" height="33" viewBox="0 0 24 33" fill="none" xmlns="http://www.w3.org/2000/svg">
<path d="M9.7145 13.5937C9.7145 13.3361 9.81684 13.089 9.99903 12.9068C10.1812 12.7247 10.4283 12.6224 10.6859 12.6224H17.4861C17.7437 12.6224 17.9908 12.7247 18.173 12.9068C18.3552 13.089 18.4575 13.3361 18.4575 13.5937C18.4575 13.8513 18.3552 14.0983 18.173 14.2805C17.9908 14.4626 17.7437 14.5649 17.4861 14.5649H10.6859C10.4283 14.5649 10.1812 14.4626 9.99903 14.2805C9.81684 14.0983 9.7145 13.8513 9.7145 13.5937ZM9.7145 19.4214C9.7145 19.1638 9.81684 18.9168 9.99903 18.7346C10.1812 18.5525 10.4283 18.4501 10.6859 18.4501H17.4861C17.7437 18.4501 17.9908 18.5525 18.173 18.7346C18.3552 18.9168 18.4575 19.1638 18.4575 19.4214C18.4575 19.679 18.3552 19.9261 18.173 20.1082C17.9908 20.2904 17.7437 20.3927 17.4861 20.3927H10.6859C10.4283 20.3927 10.1812 20.2904 9.99903 20.1082C9.81684 19.9261 9.7145 19.679 9.7145 19.4214ZM9.7145 25.2492C9.7145 24.9916 9.81684 24.7446 9.99903 24.5624C10.1812 24.3802 10.4283 24.2779 10.6859 24.2779H17.4861C17.7437 24.2779 17.9908 24.3802 18.173 24.5624C18.3552 24.7446 18.4575 24.9916 18.4575 25.2492C18.4575 25.5068 18.3552 25.7539 18.173 25.936C17.9908 26.1182 17.7437 26.2205 17.4861 26.2205H10.6859C10.4283 26.2205 10.1812 26.1182 9.99903 25.936C9.81684 25.7539 9.7145 25.5068 9.7145 25.2492ZM7.7716 13.5937C7.7716 13.9801 7.61807 14.3506 7.3448 14.6239C7.07153 14.8971 6.70089 15.0506 6.31442 15.0506C5.92796 15.0506 5.55732 14.8971 5.28404 14.6239C5.01077 14.3506 4.85725 13.9801 4.85725 13.5937C4.85725 13.2072 5.01077 12.8367 5.28404 12.5634C5.55732 12.2902 5.92796 12.1367 6.31442 12.1367C6.70089 12.1367 7.07153 12.2902 7.3448 12.5634C7.61807 12.8367 7.7716 13.2072 7.7716 13.5937ZM7.7716 19.4214C7.7716 19.8078 7.61807 20.1784 7.3448 20.4516C7.07153 20.7249 6.70089 20.8784 6.31442 20.8784C5.92796 20.8784 5.55732 20.7249 5.28404 20.4516C5.01077 20.1784 4.85725 19.8078 4.85725 19.4214C4.85725 19.035 5.01077 18.6644 5.28404 18.3912C5.55732 18.118 5.92796 17.9645 6.31442 17.9645C6.70089 17.9645 7.07153 18.118 7.3448 18.3912C7.61807 18.6644 7.7716 19.035 7.7716 19.4214ZM6.31442 26.7062C6.70089 26.7062 7.07153 26.5527 7.3448 26.2794C7.61807 26.0062 7.7716 25.6356 7.7716 25.2492C7.7716 24.8628 7.61807 24.4922 7.3448 24.219C7.07153 23.9458 6.70089 23.7923 6.31442 23.7923C5.92796 23.7923 5.55732 23.9458 5.28404 24.219C5.01077 24.4922 4.85725 24.8628 4.85725 25.2492C4.85725 25.6356 5.01077 26.0062 5.28404 26.2794C5.55732 26.5527 5.92796 26.7062 6.31442 26.7062ZM5.99384 2.90939C6.19482 2.34103 6.56716 1.84898 7.05954 1.50106C7.55192 1.15315 8.14011 0.966481 8.74305 0.966797H14.5717C15.1747 0.966481 15.7629 1.15315 16.2552 1.50106C16.7476 1.84898 17.12 2.34103 17.3209 2.90939H20.4004C21.1734 2.90939 21.9146 3.21639 22.4612 3.76285C23.0077 4.30931 23.3148 5.05047 23.3148 5.82328V29.1344C23.3148 29.9072 23.0077 30.6484 22.4612 31.1948C21.9146 31.7413 21.1734 32.0483 20.4004 32.0483H2.91435C2.14142 32.0483 1.40014 31.7413 0.853593 31.1948C0.307046 30.6484 0 29.9072 0 29.1344V5.82328C0 5.05047 0.307046 4.30931 0.853593 3.76285C1.40014 3.21639 2.14142 2.90939 2.91435 2.90939H5.99384ZM8.74305 2.90939C8.4854 2.90939 8.23831 3.01172 8.05613 3.19388C7.87394 3.37603 7.7716 3.62308 7.7716 3.88069C7.7716 4.13829 7.87394 4.38534 8.05613 4.5675C8.23831 4.74965 8.4854 4.85198 8.74305 4.85198H14.5717C14.8294 4.85198 15.0765 4.74965 15.2587 4.5675C15.4408 4.38534 15.5432 4.13829 15.5432 3.88069C15.5432 3.62308 15.4408 3.37603 15.2587 3.19388C15.0765 3.01172 14.8294 2.90939 14.5717 2.90939H8.74305ZM5.99384 4.85198H2.91435C2.6567 4.85198 2.40961 4.95432 2.22743 5.13647C2.04525 5.31862 1.9429 5.56568 1.9429 5.82328V29.1344C1.9429 29.392 2.04525 29.6391 2.22743 29.8212C2.40961 30.0034 2.6567 30.1057 2.91435 30.1057H20.4004C20.6581 30.1057 20.9052 30.0034 21.0874 29.8212C21.2695 29.6391 21.3719 29.392 21.3719 29.1344V5.82328C21.3719 5.56568 21.2695 5.31862 21.0874 5.13647C20.9052 4.95432 20.6581 4.85198 20.4004 4.85198H17.3209C17.12 5.42034 16.7476 5.91239 16.2552 6.26031C15.7629 6.60823 15.1747 6.79489 14.5717 6.79458H8.74305C8.14011 6.79489 7.55192 6.60823 7.05954 6.26031C6.56716 5.91239 6.19482 5.42034 5.99384 4.85198Z" fill="#F78117"/>
</svg>
