<svg width="128" height="129" viewBox="0 0 128 129" fill="none" xmlns="http://www.w3.org/2000/svg">
<path d="M106.497 129H101.747C101.467 128.927 101.194 128.82 100.911 128.783C86.2245 126.86 76.7614 112.29 81.0413 98.12C81.3213 97.1967 81.0847 96.6967 80.4647 96.0767C64.6884 80.33 48.9221 64.5733 33.1892 48.7833C32.3492 47.94 31.6759 47.7233 30.5059 48.0567C18.1862 51.5833 5.24987 44.7233 1.25997 32.5567C0.689983 30.8367 0.40999 29.02 0 27.25C0 25.6667 0 24.0833 0 22.5C0.0733315 22.3133 0.199995 22.1267 0.209995 21.9333C0.319992 20.12 1.03331 18.68 2.84993 18.0967C4.64988 17.52 6.03985 18.28 7.29649 19.5833C9.60309 21.98 11.973 24.3133 14.353 26.64C14.6696 26.95 15.2063 27.2867 15.5963 27.24C18.7195 26.8667 21.8295 26.4033 24.9594 25.9667C25.4027 22.88 25.8627 19.9267 26.2127 16.96C26.2727 16.4433 26.0094 15.73 25.6427 15.3533C23.1594 12.7833 20.6062 10.2767 18.0762 7.75C16.9329 6.60667 16.6296 5.24333 17.1429 3.73667C17.6496 2.25 18.7995 1.51333 20.3128 1.27333C20.7128 1.21 21.1028 1.09333 21.4995 1H26.4993C26.7293 1.07667 26.9527 1.19 27.1893 1.22333C41.8423 3.25667 51.2021 17.7067 46.9722 31.83C46.7055 32.7167 46.8555 33.24 47.5022 33.8833C63.3884 49.7333 79.258 65.6 95.1076 81.4867C95.7443 82.1267 96.2609 82.3033 97.1609 82.0267C109.774 78.14 123.404 85.5633 127.007 98.2633C127.424 99.7333 127.67 101.25 127.997 102.747V107.247C127.917 107.603 127.793 107.953 127.76 108.313C127.604 109.987 126.89 111.287 125.244 111.853C123.57 112.43 122.177 111.903 120.954 110.65C118.54 108.177 116.09 105.737 113.611 103.323C113.274 102.997 112.671 102.713 112.234 102.767C109.184 103.133 106.147 103.597 103.034 104.037C102.594 107.147 102.127 110.183 101.771 113.237C101.717 113.7 102.061 114.337 102.417 114.7C104.887 117.237 107.407 119.723 109.911 122.227C111.054 123.37 111.364 124.737 110.854 126.247C110.351 127.737 109.201 128.477 107.684 128.72C107.284 128.783 106.891 128.9 106.497 128.993V129Z" fill="#004F95"/>
<path d="M0 101.75C0.313326 100.297 0.55332 98.8232 0.956643 97.3966C4.55989 84.6666 17.8696 77.2732 30.5892 80.9632C31.6492 81.2699 32.2959 81.1232 33.0692 80.3266C36.3458 76.9532 39.709 73.6599 43.0189 70.3166C43.3356 69.9966 43.5023 69.5332 43.6856 69.2266C48.8155 74.3566 53.6353 79.1732 58.5319 84.0666C58.3052 84.3066 58.0019 84.6366 57.6852 84.9532C54.302 88.3399 50.9321 91.7432 47.5155 95.0966C46.8722 95.7299 46.6988 96.2466 46.9688 97.1466C51.2221 111.313 41.7556 125.87 27.086 127.783C26.8027 127.82 26.5293 127.927 26.2493 128H21.4995C21.2695 127.923 21.0428 127.793 20.8095 127.777C19.0895 127.647 17.7329 126.953 17.1429 125.25C16.5396 123.517 17.1429 122.117 18.4329 120.87C20.8561 118.523 23.2361 116.13 25.5894 113.71C25.9427 113.343 26.2827 112.707 26.2293 112.243C25.8727 109.19 25.406 106.153 24.9627 103.027C21.8161 102.587 18.7362 102.123 15.6429 101.763C15.2196 101.713 14.643 102.077 14.2963 102.413C11.763 104.89 9.2731 107.407 6.76983 109.91C5.62653 111.053 4.25989 111.367 2.75327 110.857C1.2633 110.353 0.519987 109.203 0.27666 107.687C0.213328 107.287 0.0966643 106.893 0.00333325 106.497C0.00333325 104.913 0.00333325 103.33 0.00333325 101.747L0 101.75Z" fill="#F78117"/>
<path d="M127.996 26.2496C127.503 28.2596 127.179 30.3296 126.486 32.2696C122.233 44.1396 109.207 50.6529 97.1535 46.9663C96.2535 46.6896 95.7335 46.8663 95.1002 47.5096C91.7469 50.9263 88.337 54.2896 84.9704 57.6929C84.6571 58.0129 84.5071 58.4929 84.3305 58.8063C79.1639 53.6396 74.3474 48.8229 69.2142 43.6896C69.5342 43.4996 70.0008 43.3329 70.3175 43.0163C73.7807 39.5896 77.2106 36.1296 80.6706 32.7063C81.1739 32.2063 81.2939 31.7863 81.0839 31.0729C76.8073 16.6196 85.9371 2.44293 100.93 0.209596C101.127 0.179596 101.31 0.0729297 101.497 0.00292969H106.497C106.727 0.0795964 106.953 0.209596 107.19 0.226263C108.91 0.35293 110.266 1.04626 110.853 2.75293C111.45 4.48626 110.85 5.8896 109.566 7.13626C107.117 9.51626 104.71 11.9429 102.32 14.3829C102.013 14.6963 101.707 15.2429 101.753 15.6396C102.127 18.7296 102.587 21.8129 103.027 24.9596C106.147 25.4029 109.183 25.8696 112.236 26.2263C112.7 26.2796 113.336 25.9363 113.703 25.5829C116.24 23.1129 118.73 20.5929 121.233 18.0863C122.38 16.9396 123.743 16.6329 125.249 17.1429C126.743 17.6463 127.476 18.7996 127.723 20.3163C127.786 20.7163 127.906 21.1063 127.999 21.5029V26.2529L127.996 26.2496Z" fill="#F78117"/>
</svg>
