<svg width="28" height="31" viewBox="0 0 28 31" fill="none" xmlns="http://www.w3.org/2000/svg">
<g clip-path="url(#clip0_1_561)">
<path d="M2.42526 28.9069C2.17044 28.9069 1.94758 28.9126 1.72554 28.9061C0.775918 28.8784 0.0737409 28.1994 0.0114708 27.2522C0.00491606 27.1503 0.00409672 27.0484 0.00409672 26.9465C0.00327737 18.6214 0.0057354 10.2963 0 1.97043C0 1.36967 0.136011 0.841453 0.604675 0.43551C0.952077 0.134721 1.35847 0.00837376 1.81812 0.0116343C2.98323 0.0189707 4.14833 0.0140798 5.31344 0.0140798C10.046 0.0140798 14.7785 0.0328281 19.5102 0.00103745C20.7023 -0.00711401 21.5373 0.803956 21.4987 1.99814C21.4594 3.19967 21.4971 4.40283 21.484 5.60517C21.4815 5.84971 21.5479 6.02252 21.7232 6.19289C22.3607 6.81077 22.9768 7.45066 23.6167 8.06609C23.824 8.2658 23.9093 8.47366 23.9093 8.76304C23.9011 13.3385 23.906 17.9139 23.8986 22.4885C23.8986 22.7298 23.951 22.8349 24.2059 22.8993C26.2313 23.4128 27.5348 25.3676 27.2587 27.4462C26.9916 29.4539 25.2202 30.9823 23.1596 30.9831C18.6523 30.9847 14.1451 30.9864 9.63875 30.988C7.81981 30.988 5.99923 30.9562 4.18111 30.9994C3.05287 31.0263 2.33677 30.2038 2.42444 29.2371C2.43345 29.1392 2.42526 29.0398 2.42526 28.9069ZM17.0841 2.84427C16.9776 2.83856 16.908 2.83122 16.8383 2.83122C12.5859 2.83122 8.33436 2.82959 4.08197 2.83204C3.46172 2.83204 3.16512 3.14913 3.16512 3.7931C3.16512 12.2918 3.16512 20.7905 3.16512 29.2892C3.16512 29.9446 3.46418 30.2487 4.11392 30.2487C9.5519 30.2503 14.9891 30.2495 20.427 30.2487C20.5114 30.2487 20.5966 30.2356 20.7179 30.2258C19.266 29.0145 18.6622 27.522 19.1915 25.736C19.7593 23.8196 21.1686 22.8732 23.1423 22.7208V8.89102C23.0113 8.89102 22.8998 8.89102 22.7892 8.89102C21.4299 8.89102 20.0706 8.89428 18.7105 8.88939C17.9829 8.88694 17.4061 8.5079 17.1882 7.8729C17.1169 7.66585 17.0899 7.43517 17.089 7.21508C17.0808 5.76901 17.0849 4.32376 17.0849 2.84427H17.0841ZM17.8232 3.42384V3.66919C17.8232 4.84056 17.8224 6.01111 17.8232 7.18247C17.824 7.84274 18.1337 8.14924 18.8031 8.15005C19.978 8.15168 21.1522 8.15005 22.3271 8.15005H22.5434C20.9695 6.57437 19.4094 5.01174 17.8232 3.42302V3.42384ZM22.5065 27.8065C22.2673 27.5579 22.0567 27.3361 21.8437 27.1169C21.6684 26.9367 21.4619 26.8919 21.2792 27.0777C21.0981 27.2628 21.1472 27.4666 21.3242 27.6426C21.6061 27.923 21.8855 28.2059 22.1698 28.4847C22.4336 28.7439 22.6073 28.7439 22.8711 28.4822C23.3718 27.9874 23.8683 27.4886 24.3664 26.9921C24.5828 26.7761 24.8023 26.5626 25.0137 26.3417C25.1702 26.1786 25.1882 25.9887 25.0309 25.8232C24.8613 25.6447 24.668 25.6667 24.4893 25.8273C24.4213 25.8884 24.3583 25.9553 24.2927 26.0205C23.7085 26.6033 23.1243 27.187 22.5049 27.8065H22.5065Z" fill="#F78117"/>
<path d="M13.157 16.3414C10.5818 16.3414 8.0058 16.3414 5.43061 16.3414C5.35932 16.3414 5.28722 16.3422 5.21594 16.3414C4.86608 16.3357 4.69156 16.2094 4.69238 15.9648C4.69238 15.7178 4.8587 15.5972 5.22003 15.5972C10.5138 15.5964 15.8076 15.5972 21.1014 15.5972C21.1825 15.5972 21.2898 15.576 21.3406 15.6176C21.4545 15.7113 21.6135 15.836 21.6176 15.9526C21.6216 16.0708 21.4815 16.224 21.3644 16.3047C21.2783 16.3643 21.1276 16.3398 21.0063 16.3398C18.3902 16.3414 15.774 16.3406 13.1578 16.3406L13.157 16.3414Z" fill="#F78117"/>
<path d="M13.157 18.2475C15.7838 18.2475 18.4106 18.2475 21.0375 18.2475C21.1292 18.2475 21.2472 18.2141 21.3078 18.2581C21.434 18.3494 21.6102 18.479 21.6151 18.598C21.62 18.7203 21.4553 18.8613 21.3398 18.9681C21.2947 19.0097 21.1825 18.9836 21.1014 18.9836C15.8174 18.9836 10.5335 18.9836 5.24871 18.9836C5.15695 18.9836 5.03241 19.0121 4.98079 18.9648C4.86608 18.8597 4.7186 18.7154 4.71532 18.5842C4.71286 18.4766 4.88492 18.3421 5.00701 18.2622C5.07911 18.2149 5.20611 18.2483 5.3077 18.2483C7.92387 18.2483 10.5408 18.2483 13.157 18.2483V18.2475Z" fill="#F78117"/>
<path d="M13.1898 21.6263C10.5736 21.6263 7.95664 21.6263 5.34048 21.6263C5.23806 21.6263 5.11352 21.6606 5.03896 21.6141C4.90787 21.5326 4.74728 21.4193 4.70713 21.2872C4.6465 21.0851 4.7989 20.9457 5.00291 20.9C5.09058 20.8805 5.18563 20.887 5.27739 20.887C10.5409 20.887 15.8043 20.887 21.0678 20.887C21.1595 20.887 21.2816 20.8593 21.3365 20.9065C21.4553 21.0084 21.6184 21.1519 21.6143 21.2742C21.611 21.3924 21.4357 21.5269 21.3078 21.6133C21.2374 21.6614 21.1087 21.6263 21.0071 21.6263C18.4008 21.6263 15.7945 21.6263 13.1882 21.6263H13.1898Z" fill="#F78117"/>
<path d="M9.47488 23.5378C10.853 23.5378 12.2312 23.5378 13.6093 23.5378C13.7011 23.5378 13.7936 23.5362 13.8846 23.5452C14.0968 23.5655 14.2328 23.6878 14.2394 23.8965C14.2459 24.1223 14.1042 24.2495 13.8821 24.278C13.8018 24.2886 13.7191 24.2853 13.638 24.2853C10.8612 24.2853 8.08446 24.2853 5.3077 24.2853C5.28722 24.2853 5.26674 24.2853 5.24625 24.2853C4.86936 24.2812 4.69156 24.1598 4.69238 23.9079C4.69238 23.6568 4.86772 23.5378 5.24953 23.5378C6.65798 23.5362 8.06725 23.5378 9.4757 23.5378H9.47488Z" fill="#F78117"/>
<path d="M5.67969 12.226C5.67969 12.5577 5.67641 12.8903 5.68051 13.2221C5.68297 13.4462 5.61332 13.6125 5.35851 13.6085C5.1209 13.6044 5.05781 13.4413 5.05781 13.2327C5.06026 12.5806 5.06272 11.9284 5.05617 11.2763C5.05371 11.0261 5.15039 10.8565 5.40029 10.8117C5.65019 10.7669 5.837 10.8606 5.93614 11.1084C6.13934 11.6179 6.34827 12.1257 6.57769 12.693C6.67601 12.464 6.7563 12.2838 6.83087 12.1012C6.97425 11.7532 7.10862 11.401 7.25692 11.0554C7.35197 10.8353 7.54287 10.7726 7.76492 10.8117C7.98368 10.85 8.11068 10.991 8.11232 11.2136C8.11723 11.8958 8.11723 12.5789 8.11232 13.2612C8.11068 13.4544 8.02874 13.6044 7.80916 13.6093C7.57073 13.615 7.49044 13.4609 7.4888 13.2514C7.48552 12.9164 7.48798 12.5822 7.42325 12.2268C7.2815 12.5732 7.15123 12.9254 6.99146 13.2636C6.93082 13.3916 6.82267 13.54 6.70059 13.5864C6.44659 13.6826 6.27535 13.5351 6.17949 13.2962C6.03364 12.9335 5.88698 12.5724 5.74032 12.2097C5.71984 12.2146 5.69935 12.2203 5.67887 12.2251L5.67969 12.226Z" fill="#F78117"/>
<path d="M13.0153 12.4342C13.0153 12.0405 13.0185 11.6468 13.0136 11.253C13.0112 11.0305 13.0464 10.8178 13.3168 10.8145C13.5782 10.8112 13.6429 11.0077 13.6421 11.2384C13.6388 11.8693 13.6396 12.501 13.6421 13.132C13.6421 13.3414 13.5937 13.5265 13.3733 13.5941C13.1382 13.6667 12.9645 13.5705 12.8276 13.3675C12.5122 12.8996 12.1853 12.4391 11.7944 11.994C11.7944 12.3445 11.7944 12.695 11.7944 13.0455C11.7944 13.1474 11.8248 13.2746 11.7764 13.3447C11.7002 13.4539 11.5724 13.5827 11.4569 13.5917C11.3692 13.599 11.1873 13.436 11.1849 13.3447C11.1619 12.6127 11.1586 11.8791 11.1865 11.1479C11.1906 11.0321 11.3692 10.8471 11.4856 10.8316C11.624 10.8129 11.8338 10.9009 11.9239 11.0134C12.2279 11.3949 12.4917 11.8082 12.7719 12.2092C12.8293 12.2907 12.8874 12.3722 12.9456 12.4529C12.9694 12.4464 12.9931 12.4399 13.0169 12.4334L13.0153 12.4342Z" fill="#F78117"/>
<path d="M17.8035 10.7305C17.942 10.8568 18.1009 10.9383 18.1583 11.0655C18.4721 11.7608 18.7728 12.4635 19.0473 13.1751C19.0882 13.2811 19.0096 13.5085 18.9137 13.5745C18.7548 13.6846 18.586 13.5982 18.4893 13.4123C18.4115 13.2639 18.3426 13.021 18.232 12.9982C17.9485 12.9395 17.6437 12.9729 17.348 12.9868C17.3021 12.9892 17.2505 13.0781 17.2193 13.1368C17.162 13.2444 17.1456 13.396 17.0604 13.4604C16.9555 13.5386 16.7793 13.6006 16.6679 13.5655C16.5884 13.5403 16.4926 13.3137 16.527 13.2256C16.8211 12.4781 17.1374 11.7388 17.4659 11.0044C17.511 10.9025 17.6568 10.8454 17.8035 10.7305ZM18.0362 12.3616C17.9567 12.1619 17.8871 11.9874 17.797 11.76C17.7036 11.9899 17.6331 12.1627 17.552 12.3616H18.0362Z" fill="#F78117"/>
<path d="M9.65104 10.7266C9.79197 10.8602 9.94764 10.945 10.0058 11.073C10.3155 11.7594 10.5998 12.4571 10.8956 13.15C10.9767 13.3399 10.9456 13.5046 10.7555 13.5869C10.572 13.666 10.4229 13.591 10.3278 13.4051C10.2524 13.2576 10.1771 13.0204 10.0664 12.9976C9.78214 12.9405 9.47734 12.9739 9.18238 12.9894C9.13813 12.9919 9.09061 13.0864 9.05866 13.1459C9.00704 13.2445 8.99393 13.3848 8.91609 13.4443C8.80958 13.525 8.63178 13.6122 8.53264 13.5731C8.44251 13.538 8.33763 13.3089 8.37368 13.2176C8.66127 12.4783 8.97426 11.7479 9.29872 11.0241C9.34788 10.914 9.50028 10.8505 9.65186 10.7274L9.65104 10.7266ZM9.88619 12.365C9.80344 12.1661 9.7297 11.9909 9.63547 11.7659C9.54125 11.9966 9.47079 12.1686 9.39049 12.365H9.88619Z" fill="#F78117"/>
<path d="M16.3516 11.9116C16.3516 12.1357 16.359 12.3599 16.35 12.5841C16.3254 13.2011 15.8453 13.6348 15.1898 13.6389C14.5401 13.6429 14.0386 13.2052 14.019 12.5947C14.0042 12.1268 14.0173 11.6573 14.0124 11.1885C14.0099 10.9725 14.0952 10.816 14.3188 10.8136C14.5409 10.8119 14.6351 10.9636 14.6343 11.1812C14.6318 11.6092 14.6302 12.0371 14.6343 12.4651C14.6384 12.8384 14.8473 13.0512 15.1939 13.0446C15.529 13.0389 15.7281 12.8335 15.7322 12.4757C15.7371 12.0583 15.7379 11.6401 15.7322 11.222C15.7289 11.0002 15.7945 10.8185 16.0378 10.8136C16.2795 10.8087 16.3615 10.9815 16.3557 11.2081C16.35 11.4421 16.3541 11.6768 16.3541 11.9116C16.3533 11.9116 16.3525 11.9116 16.3516 11.9116Z" fill="#F78117"/>
<path d="M19.951 12.9861C20.2935 12.9861 20.5885 12.9885 20.8826 12.9861C21.0923 12.9837 21.2562 13.0481 21.262 13.2844C21.2677 13.538 21.0973 13.6081 20.8744 13.6064C20.5065 13.604 20.1386 13.6097 19.7707 13.6048C19.4578 13.5999 19.325 13.4736 19.3209 13.1548C19.3136 12.5027 19.3185 11.8506 19.3185 11.1985C19.3185 10.9906 19.393 10.8194 19.6208 10.8146C19.8633 10.8097 19.9502 10.9825 19.9502 11.2042C19.9502 11.7838 19.9502 12.3633 19.9502 12.9869L19.951 12.9861Z" fill="#F78117"/>
</g>
<defs>
<clipPath id="clip0_1_561">
<rect width="27.2956" height="31" fill="white"/>
</clipPath>
</defs>
</svg>
