<svg width="26" height="33" viewBox="0 0 26 33" fill="none" xmlns="http://www.w3.org/2000/svg">
<g clip-path="url(#clip0_1_575)">
<path d="M20.3156 5.18939C20.3152 4.26256 19.6461 3.59596 18.7308 3.59468C18.0181 3.59383 17.3046 3.58742 16.5919 3.59938C16.4228 3.60237 16.3469 3.54084 16.2785 3.3947C16.0377 2.88151 15.7869 2.37258 15.5339 1.86494C15.2319 1.25816 14.7558 0.94153 14.0745 0.942385C11.4532 0.947085 8.83182 0.944948 6.21004 0.944521C5.55481 0.944521 5.09463 1.26543 4.80309 1.84571C4.53882 2.3713 4.28755 2.90373 4.03837 3.43701C3.98216 3.55708 3.91295 3.59853 3.78249 3.59767C3.08363 3.59084 2.38435 3.59468 1.68548 3.59426C0.627965 3.59426 0.000416245 4.23052 0.000416245 5.3022V15.5349C0.000416245 20.014 -0.00126169 24.493 0.0016747 28.9721C0.00251367 29.9361 0.660265 30.5945 1.60075 30.5945C3.77326 30.595 5.94577 30.595 8.11786 30.595H13.9726C14.054 30.595 14.1291 30.5484 14.1651 30.4745C14.2297 30.3411 14.2688 30.1339 14.2679 29.9044C14.2667 29.6869 14.2302 29.4955 14.1702 29.366C14.1265 29.2716 14.0334 29.2096 13.9311 29.2096H13.9294C12.0023 29.2143 10.0752 29.2135 8.14764 29.2135H7.5331C5.68778 29.2135 3.84205 29.2135 1.99674 29.2131C1.49084 29.2126 1.30711 29.0233 1.30375 28.5029C1.30333 28.4815 1.30333 28.4601 1.30333 28.4388C1.30417 20.8549 1.30501 13.2711 1.30543 5.68721C1.30543 5.16717 1.49001 4.97617 1.99632 4.97617H18.3117C18.8327 4.97617 19.0127 5.16247 19.0127 5.69832C19.0123 10.8397 19.0123 15.981 19.0123 21.1224V21.4138H20.3085C20.311 21.3506 20.3165 21.2809 20.3165 21.2117C20.3165 19.4884 20.316 17.7651 20.316 16.0417C20.316 12.4241 20.3181 8.80698 20.3156 5.18939ZM10.167 3.59426C9.76056 3.59383 9.43797 3.26736 9.43378 2.85245C9.42958 2.42728 9.75594 2.09184 10.1717 2.09355C10.5748 2.09483 10.9045 2.426 10.9099 2.83536C10.9158 3.25027 10.579 3.59426 10.167 3.59426Z" fill="#F78117"/>
<path d="M17.8616 32.0229C17.4308 31.8182 17.0155 31.6208 16.5843 31.4161C16.7185 31.0589 16.8528 30.717 16.9715 30.3696C16.9916 30.3107 16.9686 30.2034 16.9249 30.1603C16.5881 29.8218 16.2412 29.4941 15.8628 29.1292C15.5385 29.254 15.1568 29.4009 14.76 29.5539C14.5603 29.1211 14.3678 28.704 14.1618 28.2579C14.4512 28.0938 14.7294 27.9212 15.0213 27.7767C15.2029 27.6866 15.2466 27.5887 15.1996 27.3828C15.0524 26.7354 15.0666 26.0816 15.2122 25.4347C15.2428 25.2979 15.2189 25.2304 15.0972 25.1659C14.7885 25.0018 14.4869 24.8241 14.1635 24.6407C14.3619 24.2066 14.5553 23.7836 14.7579 23.3404C15.0914 23.4703 15.4173 23.59 15.7374 23.725C15.867 23.7797 15.9358 23.7609 16.0352 23.6502C16.3121 23.3413 16.6078 23.049 16.9077 22.7631C16.9933 22.6815 17.0197 22.6256 16.974 22.5119C16.8398 22.1773 16.7177 21.8376 16.5843 21.4812C17.0101 21.2787 17.4254 21.0808 17.8608 20.874C18.0345 21.1924 18.2094 21.4983 18.3692 21.8124C18.4372 21.9457 18.503 21.9795 18.6603 21.9389C19.2988 21.7739 19.9641 21.7748 20.6034 21.9367C20.7582 21.976 20.8299 21.9555 20.8995 21.8171C21.0585 21.5022 21.2339 21.1962 21.4096 20.874C21.8371 21.0774 22.2469 21.2723 22.6832 21.4799C22.5364 21.8769 22.3921 22.2658 22.2666 22.6046C22.6232 22.9905 22.9538 23.3545 23.2944 23.7088C23.3313 23.7472 23.4324 23.7549 23.489 23.7344C23.8238 23.6135 24.1543 23.4797 24.5113 23.3404C24.7101 23.7737 24.906 24.2015 25.1074 24.6407C24.7865 24.8223 24.4849 25.001 24.1761 25.1642C24.0805 25.215 24.0318 25.3253 24.0566 25.4325C24.2118 26.109 24.2122 26.7884 24.0562 27.4648C24.0247 27.6003 24.0562 27.6699 24.1761 27.734C24.4849 27.8981 24.7865 28.0754 25.1074 28.257C24.9081 28.692 24.7148 29.1146 24.5121 29.5573C24.169 29.4236 23.8364 29.2992 23.5083 29.1625C23.3925 29.1142 23.3334 29.1369 23.2482 29.233C22.9361 29.5851 22.6077 29.9227 22.2637 30.2889C22.3908 30.6286 22.5347 31.0123 22.6857 31.4161C22.2604 31.6191 21.8455 31.8165 21.4092 32.0246C21.2372 31.7088 21.0623 31.4029 20.9029 31.0884C20.8249 30.9341 20.7485 30.9021 20.5254 30.9841C19.9477 31.1965 19.3143 31.2093 18.7405 30.9867C18.5253 30.9034 18.4468 30.9333 18.3717 31.0798C18.2102 31.3939 18.0361 31.7011 17.8608 32.0233L17.8616 32.0229ZM19.657 29.204C21.1512 29.1903 22.348 27.9579 22.3405 26.4371C22.3333 24.9027 21.1223 23.6878 19.6033 23.6904C18.071 23.693 16.8247 25.0484 16.9358 26.6478C17.0357 28.0895 18.2379 29.2168 19.657 29.204Z" fill="#F78117"/>
<path d="M12.9306 16.1944C11.5119 16.1944 10.0936 16.1944 8.67494 16.1944C8.36074 16.1944 8.17701 16.0409 8.17197 15.7794C8.16652 15.5093 8.35529 15.346 8.67787 15.346C11.5148 15.3456 14.3522 15.3456 17.1892 15.346C17.5 15.346 17.6892 15.5033 17.6955 15.761C17.7018 16.0264 17.5063 16.1944 17.1867 16.1948C15.768 16.1956 14.3497 16.1948 12.931 16.1948L12.9306 16.1944Z" fill="#F78117"/>
<path d="M12.905 19.229C11.4935 19.229 10.0819 19.229 8.67032 19.229C8.40688 19.229 8.2479 19.1302 8.18959 18.9362C8.09982 18.6362 8.30201 18.3819 8.63928 18.3811C9.45685 18.3785 10.2744 18.3798 11.092 18.3798C13.0976 18.3798 15.1031 18.3798 17.1087 18.3798C17.1716 18.3798 17.2349 18.3768 17.2974 18.3819C17.5261 18.4007 17.6922 18.5764 17.6951 18.7995C17.698 19.0221 17.5365 19.2093 17.3071 19.223C17.0843 19.2362 16.8599 19.229 16.6363 19.229C15.3926 19.229 14.1488 19.229 12.9046 19.229H12.905Z" fill="#F78117"/>
<path d="M12.9491 8.83008C14.3396 8.83008 15.7298 8.83008 17.1204 8.83051C17.2039 8.83051 17.2895 8.82837 17.3708 8.84333C17.649 8.89418 17.8163 9.25061 17.6028 9.51943C17.5508 9.58482 17.4812 9.63568 17.4006 9.65577C17.3201 9.67585 17.2379 9.67543 17.1561 9.67543C14.3401 9.67585 11.5245 9.67585 8.70849 9.67543C8.35613 9.67543 8.17491 9.52884 8.17659 9.24976C8.17784 9.03394 8.31627 8.86854 8.52602 8.8382C8.58768 8.82922 8.65144 8.83051 8.71437 8.83051C10.1259 8.83051 11.5371 8.83051 12.9486 8.83051L12.9491 8.83008Z" fill="#F78117"/>
<path d="M12.9503 11.8647C14.3548 11.8647 15.7592 11.863 17.1636 11.8682C17.2849 11.8686 17.4199 11.8874 17.5235 11.9447C17.6767 12.0293 17.7333 12.1913 17.6976 12.3682C17.6603 12.5524 17.5466 12.6704 17.3599 12.7011C17.2983 12.7114 17.2345 12.7105 17.172 12.7105C14.3493 12.711 11.5262 12.711 8.70346 12.7105C8.39556 12.7105 8.22106 12.5883 8.18792 12.3558C8.14848 12.0784 8.33096 11.8695 8.63215 11.8665C9.23285 11.8609 9.83397 11.8643 10.4347 11.8643C11.2732 11.8643 12.1118 11.8643 12.9499 11.8643L12.9503 11.8647Z" fill="#F78117"/>
<path d="M4.11388 10.9238C4.24769 10.7913 4.36263 10.6789 4.47631 10.5648C5.02794 10.0101 5.57872 9.45452 6.13118 8.90064C6.34595 8.68524 6.60058 8.67071 6.77718 8.8579C6.94666 9.03697 6.92778 9.2934 6.72307 9.49982C5.9487 10.2806 5.17392 11.0606 4.39703 11.8388C4.12437 12.1119 3.83366 12.0773 3.63231 11.7482C3.23632 11.102 3.46326 11.4029 3.07062 10.7546C2.90996 10.4892 2.94645 10.2353 3.15871 10.0999C3.3781 9.95925 3.61973 10.043 3.78752 10.3187C4.0971 10.8264 3.78584 10.3858 4.11346 10.9238H4.11388Z" fill="#F78117"/>
<path d="M12.1629 22.976C10.9737 22.976 9.78405 22.976 8.59481 22.976C8.37291 22.976 8.23867 22.8773 8.19001 22.6833C8.11408 22.3833 8.28439 22.129 8.56922 22.1281C9.25802 22.1256 9.94723 22.1268 10.636 22.1268C12.3261 22.1268 14.0158 22.1268 15.7059 22.1268C15.7588 22.1268 15.812 22.1239 15.8649 22.129C16.0574 22.1478 16.1975 22.3234 16.2001 22.5465C16.2026 22.7692 16.0662 22.9564 15.8733 22.9701C15.6854 22.9833 15.4966 22.976 15.3082 22.976C14.2599 22.976 13.2121 22.976 12.1638 22.976H12.1629Z" fill="#F78117"/>
<path d="M11.329 25.9975C10.3881 25.9975 9.44763 25.9975 8.50672 25.9975C8.33138 25.9975 8.22525 25.8988 8.18624 25.7048C8.12625 25.4048 8.26091 25.1505 8.48617 25.1496C9.03108 25.147 9.57599 25.1483 10.1209 25.1483C11.4574 25.1483 12.7943 25.1483 14.1308 25.1483C14.1727 25.1483 14.2146 25.1453 14.2566 25.1505C14.4089 25.1693 14.5196 25.3449 14.5217 25.568C14.5238 25.7907 14.416 25.9779 14.2633 25.9915C14.1148 26.0048 13.9655 25.9975 13.8166 25.9975C12.9877 25.9975 12.1588 25.9975 11.3294 25.9975H11.329Z" fill="#F78117"/>
<path d="M4.11388 24.5977C4.24769 24.4652 4.36263 24.3528 4.47631 24.2387C5.02794 23.6839 5.57872 23.1283 6.13118 22.5745C6.34595 22.3591 6.60058 22.3445 6.77718 22.5317C6.94666 22.7108 6.92778 22.9672 6.72307 23.1736C5.9487 23.9545 5.17392 24.7344 4.39703 25.5127C4.12437 25.7858 3.83366 25.7511 3.63231 25.4221C3.23632 24.7759 3.46326 25.0767 3.07062 24.4284C2.90996 24.163 2.94645 23.9092 3.15871 23.7737C3.3781 23.6331 3.61973 23.7168 3.78752 23.9925C4.0971 24.5002 3.78584 24.0596 4.11346 24.5977H4.11388Z" fill="#F78117"/>
<path d="M4.11388 17.7607C4.24769 17.6283 4.36263 17.5159 4.47631 17.4018C5.02794 16.847 5.57872 16.2914 6.13118 15.7376C6.34595 15.5222 6.60058 15.5076 6.77718 15.6948C6.94666 15.8739 6.92778 16.1303 6.72307 16.3367C5.9487 17.1175 5.17392 17.8975 4.39703 18.6758C4.12437 18.9488 3.83366 18.9142 3.63231 18.5852C3.23632 17.939 3.46326 18.2398 3.07062 17.5915C2.90996 17.3261 2.94645 17.0722 3.15871 16.9368C3.3781 16.7962 3.61973 16.8799 3.78752 17.1556C4.0971 17.6633 3.78584 17.2227 4.11346 17.7607H4.11388Z" fill="#F78117"/>
</g>
<defs>
<clipPath id="clip0_1_575">
<rect width="25.1082" height="31.0815" fill="white" transform="translate(0 0.942383)"/>
</clipPath>
</defs>
</svg>
