<svg width="32" height="33" viewBox="0 0 32 33" fill="none" xmlns="http://www.w3.org/2000/svg">
<path d="M26.3351 32.0356H25.1605C25.0913 32.0178 25.0237 31.9919 24.9537 31.983C21.322 31.516 18.9819 27.978 20.0402 24.5372C20.1095 24.313 20.051 24.1916 19.8976 24.041C15.9964 20.2173 12.0977 16.3912 8.20716 12.557C7.99944 12.3523 7.83294 12.2997 7.54363 12.3806C4.49716 13.237 1.29821 11.5712 0.31157 8.61682C0.170622 8.19916 0.101384 7.75803 0 7.32824C0 6.94376 0 6.55929 0 6.17482C0.0181337 6.12949 0.0494556 6.08417 0.0519284 6.03722C0.079129 5.5969 0.255521 5.24723 0.704742 5.10559C1.14984 4.96556 1.49356 5.1501 1.80431 5.46658C2.37469 6.04855 2.96074 6.61514 3.54926 7.18011C3.62757 7.25539 3.76028 7.33714 3.85671 7.32581C4.62905 7.23515 5.39808 7.12264 6.17206 7.01661C6.28169 6.26709 6.39543 5.54995 6.48198 4.82958C6.49682 4.70412 6.4317 4.5309 6.34103 4.43944C5.72696 3.81538 5.09558 3.2067 4.46996 2.59316C4.18724 2.31554 4.11223 1.98449 4.23917 1.61863C4.36446 1.25763 4.64883 1.07875 5.02304 1.02047C5.12195 1.00509 5.21839 0.976765 5.31648 0.954102H6.55287C6.60974 0.972718 6.66497 1.00024 6.72349 1.00833C10.3469 1.50207 12.6615 5.01088 11.6155 8.44037C11.5495 8.65567 11.5866 8.78275 11.7465 8.93897C15.675 12.7877 19.5993 16.6405 23.5186 20.4982C23.676 20.6536 23.8038 20.6965 24.0264 20.6293C27.1454 19.6856 30.5158 21.4881 31.4068 24.572C31.5098 24.9289 31.5708 25.2972 31.6516 25.6607V26.7534C31.6318 26.84 31.6013 26.925 31.5931 27.0124C31.5543 27.4187 31.3779 27.7344 30.9708 27.872C30.557 28.012 30.2124 27.8841 29.9099 27.5798C29.3132 26.9792 28.7073 26.3867 28.0941 25.8007C28.0108 25.7214 27.8616 25.6526 27.7537 25.6655C26.9995 25.7545 26.2486 25.8671 25.4787 25.9739C25.3699 26.7291 25.2545 27.4665 25.1663 28.2079C25.1531 28.3204 25.238 28.475 25.3262 28.5632C25.937 29.1792 26.5601 29.783 27.1792 30.3909C27.4619 30.6685 27.5385 31.0004 27.4124 31.367C27.288 31.7288 27.0036 31.9085 26.6285 31.9676C26.5296 31.983 26.4324 32.0113 26.3351 32.034V32.0356Z" fill="#F78117"/>
<path d="M0 25.6611C0.0774805 25.3082 0.136827 24.9505 0.236563 24.604C1.12759 21.5129 4.41886 19.7176 7.56424 20.6136C7.82635 20.6881 7.98626 20.6525 8.17749 20.459C8.98773 19.6399 9.81941 18.8402 10.6379 18.0284C10.7162 17.9506 10.7574 17.8381 10.8028 17.7637C12.0713 19.0094 13.2632 20.179 14.474 21.3672C14.418 21.4255 14.343 21.5056 14.2646 21.5825C13.428 22.4049 12.5947 23.2313 11.7498 24.0455C11.5907 24.1993 11.5479 24.3248 11.6147 24.5433C12.6664 27.9833 10.3255 31.518 6.69794 31.9826C6.62788 31.9916 6.56029 32.0175 6.49105 32.0353H5.31648C5.2596 32.0166 5.20356 31.9851 5.14586 31.981C4.72054 31.9495 4.38506 31.7811 4.23917 31.3675C4.08998 30.9466 4.23917 30.6066 4.55816 30.3039C5.1574 29.7341 5.74592 29.1529 6.32785 28.5653C6.41522 28.4763 6.49929 28.3217 6.4861 28.2092C6.39791 27.4677 6.28251 26.7304 6.17288 25.9711C5.39478 25.8643 4.63317 25.7518 3.86825 25.6644C3.76357 25.6522 3.62098 25.7404 3.53525 25.8222C2.90881 26.4236 2.29309 27.0347 1.67407 27.6426C1.39135 27.9202 1.0534 27.9963 0.680839 27.8724C0.312395 27.7502 0.128585 27.471 0.0684136 27.1027C0.0527527 27.0056 0.0239035 26.91 0.00082426 26.8137C0.00082426 26.4293 0.00082426 26.0448 0.00082426 25.6603L0 25.6611Z" fill="#F78117"/>
<path d="M31.6516 7.3284C31.5297 7.81648 31.4497 8.31913 31.2783 8.7902C30.2265 11.6725 27.0053 13.2541 24.0248 12.3589C23.8022 12.2917 23.6736 12.3346 23.517 12.4908C22.6878 13.3205 21.8446 14.1372 21.0121 14.9636C20.9346 15.0413 20.8975 15.1579 20.8538 15.2339C19.5762 13.9794 18.3852 12.8098 17.1158 11.5633C17.1949 11.5171 17.3103 11.4767 17.3886 11.3998C18.2451 10.5677 19.0932 9.72751 19.9488 8.89624C20.0733 8.77483 20.1029 8.67284 20.051 8.49963C18.9935 4.99001 21.2511 1.54757 24.9586 1.00526C25.0073 0.997977 25.0526 0.972076 25.0988 0.955078H26.3352C26.392 0.973695 26.4481 1.00526 26.5066 1.00931C26.9319 1.04007 27.2674 1.20842 27.4125 1.62284C27.56 2.04374 27.4116 2.3845 27.0943 2.68722C26.4885 3.26515 25.8934 3.8544 25.3024 4.44689C25.2265 4.52297 25.1507 4.65572 25.1622 4.75204C25.2546 5.50237 25.3683 6.25107 25.4771 7.01516C26.2486 7.12281 26.9995 7.23613 27.7545 7.32274C27.8691 7.33569 28.0265 7.25232 28.1172 7.16652C28.7445 6.56674 29.3602 5.95483 29.9792 5.34615C30.2628 5.06771 30.5999 4.99324 30.9725 5.11708C31.3417 5.23931 31.5231 5.51936 31.5841 5.88765C31.5997 5.98478 31.6294 6.07948 31.6525 6.1758V7.32921L31.6516 7.3284Z" fill="#F78117"/>
</svg>
