<svg width="27" height="32" viewBox="0 0 27 32" fill="none" xmlns="http://www.w3.org/2000/svg">
<path d="M2.22046 32.0004H15.5432C16.1319 31.9998 16.6964 31.7658 17.1126 31.3495C17.5289 30.9333 17.7631 30.369 17.7636 29.7803V26.4502H15.5432V29.7803H2.22046V3.13905H15.5432V6.46921H17.7636V3.13905C17.7631 2.55042 17.5289 1.98607 17.1126 1.56985C16.6964 1.15363 16.1319 0.919533 15.5432 0.918945H2.22046C1.63173 0.919533 1.06729 1.15363 0.651006 1.56985C0.234717 1.98607 0.00058784 2.55042 0 3.13905V29.7803C0.00058784 30.369 0.234717 30.9333 0.651006 31.3495C1.06729 31.7658 1.63173 31.9998 2.22046 32.0004Z" fill="#F78117"/>
<path d="M18.4141 21.5508L22.3954 17.5702H6.66125V15.3501H22.3954L18.4141 11.3694L19.984 9.7998L26.6454 16.4601L19.984 23.1204L18.4141 21.5508Z" fill="#F78117"/>
</svg>
