<svg width="33" height="24" viewBox="0 0 33 24" fill="none" xmlns="http://www.w3.org/2000/svg">
<mask id="path-1-outside-1_1_558" maskUnits="userSpaceOnUse" x="0" y="-0.0117188" width="33" height="24" fill="black">
<rect fill="white" y="-0.0117188" width="33" height="24"/>
<path d="M31.8791 13.3074C31.7883 13.3723 31.6799 13.4084 31.5683 13.411C31.4882 13.4091 31.4095 13.3896 31.3379 13.3538C31.2662 13.3179 31.2034 13.2667 31.1538 13.2038C30.4803 12.3009 29.6046 11.5682 28.5969 11.0644C27.5893 10.5606 26.4776 10.2998 25.351 10.3029C25.2136 10.3029 25.0818 10.2483 24.9846 10.1511C24.8875 10.054 24.8329 9.92224 24.8329 9.78485C24.8329 9.64746 24.8875 9.5157 24.9846 9.41855C25.0818 9.3214 25.2136 9.26682 25.351 9.26682C26.0389 9.26667 26.7125 9.07093 27.2934 8.70243C27.8742 8.33393 28.3382 7.80787 28.6313 7.18565C28.9244 6.56342 29.0344 5.87069 28.9486 5.18829C28.8628 4.50589 28.5847 3.86196 28.1466 3.33164C27.7086 2.80133 27.1288 2.40649 26.4748 2.19322C25.8208 1.97995 25.1197 1.95703 24.4532 2.12714C23.7867 2.29725 23.1823 2.65338 22.7106 3.15395C22.2388 3.65453 21.9192 4.27893 21.789 4.95427C21.7763 5.02144 21.7504 5.08545 21.7129 5.14264C21.6754 5.19982 21.627 5.24906 21.5705 5.28754C21.5139 5.32602 21.4504 5.35299 21.3834 5.36692C21.3165 5.38084 21.2474 5.38144 21.1802 5.36869C21.1131 5.35593 21.049 5.33007 20.9918 5.29258C20.9347 5.25509 20.8854 5.2067 20.8469 5.15018C20.8084 5.09366 20.7815 5.03011 20.7675 4.96316C20.7536 4.89622 20.753 4.82719 20.7658 4.76001C20.9139 3.99871 21.2497 3.28639 21.7427 2.68758C22.2356 2.08877 22.8702 1.62238 23.589 1.33065C24.3077 1.03893 25.0879 0.931094 25.8588 1.01691C26.6297 1.10272 27.3671 1.37948 28.0041 1.82211C28.641 2.26474 29.1575 2.85925 29.5067 3.55181C29.8559 4.24436 30.0267 5.01308 30.0038 5.78831C29.9809 6.56355 29.7649 7.32083 29.3754 7.99154C28.9859 8.66226 28.4352 9.22522 27.7731 9.62944C29.458 10.1344 30.9345 11.1701 31.9828 12.5822C32.0652 12.6921 32.1006 12.8302 32.0812 12.9663C32.0617 13.1023 31.9891 13.225 31.8791 13.3074ZM24.4702 22.5024C24.5285 22.628 24.5354 22.7714 24.4894 22.9021C24.4435 23.0327 24.3483 23.1402 24.2241 23.2017C24.1567 23.2384 24.0806 23.2563 24.0039 23.2535C23.9074 23.2542 23.8125 23.2278 23.7302 23.1775C23.6478 23.1272 23.5811 23.0548 23.5376 22.9686C22.9013 21.6548 21.9076 20.5469 20.6706 19.7716C19.4336 18.9964 18.0031 18.5852 16.5432 18.5852C15.0832 18.5852 13.6528 18.9964 12.4158 19.7716C11.1788 20.5469 10.1851 21.6548 9.54876 22.9686C9.51977 23.0297 9.47882 23.0843 9.42833 23.1292C9.37784 23.1742 9.31884 23.2086 9.25482 23.2303C9.1908 23.252 9.12307 23.2607 9.05564 23.2558C8.98821 23.2509 8.92245 23.2325 8.86227 23.2017C8.73813 23.1402 8.64291 23.0327 8.59694 22.9021C8.55096 22.7714 8.55786 22.628 8.61617 22.5024C9.14324 21.4226 9.88481 20.4615 10.7956 19.6778C11.7064 18.894 12.7674 18.304 13.9138 17.9437C12.7816 17.3551 11.8798 16.4036 11.3528 15.2416C10.8258 14.0796 10.704 12.7744 11.0071 11.535C11.3101 10.2956 12.0204 9.19373 13.0242 8.40591C14.0279 7.6181 15.2671 7.1899 16.5432 7.1899C17.8193 7.1899 19.0585 7.6181 20.0622 8.40591C21.066 9.19373 21.7763 10.2956 22.0793 11.535C22.3824 12.7744 22.2606 14.0796 21.7336 15.2416C21.2066 16.4036 20.3047 17.3551 19.1726 17.9437C20.319 18.304 21.3799 18.894 22.2908 19.6778C23.2016 20.4615 23.9431 21.4226 24.4702 22.5024ZM16.5432 17.5552C17.4654 17.5552 18.367 17.2818 19.1338 16.7695C19.9006 16.2572 20.4983 15.5291 20.8512 14.6772C21.2041 13.8252 21.2965 12.8878 21.1166 11.9834C20.9366 11.0791 20.4925 10.2483 19.8404 9.59631C19.1883 8.94428 18.3574 8.50025 17.4529 8.32036C16.5484 8.14046 15.6108 8.23279 14.7588 8.58566C13.9067 8.93854 13.1785 9.53611 12.6661 10.3028C12.1537 11.0695 11.8802 11.9709 11.8802 12.893C11.8802 14.1295 12.3715 15.3154 13.246 16.1897C14.1205 17.064 15.3065 17.5552 16.5432 17.5552ZM7.73538 9.26682C7.0475 9.26667 6.37385 9.07093 5.79303 8.70243C5.21221 8.33393 4.74819 7.80787 4.4551 7.18565C4.16202 6.56342 4.05196 5.87069 4.13777 5.18829C4.22358 4.50589 4.50173 3.86196 4.93975 3.33164C5.37776 2.80133 5.95759 2.40649 6.61157 2.19322C7.26554 1.97995 7.96669 1.95703 8.6332 2.12714C9.29972 2.29725 9.9041 2.65338 10.3758 3.15395C10.8475 3.65453 11.1672 4.27893 11.2974 4.95427C11.3231 5.08994 11.4017 5.20982 11.5159 5.28754C11.5724 5.32602 11.636 5.35299 11.703 5.36692C11.7699 5.38084 11.839 5.38144 11.9061 5.36869C11.9733 5.35593 12.0373 5.33007 12.0945 5.29258C12.1517 5.25509 12.201 5.2067 12.2395 5.15018C12.278 5.09366 12.3049 5.03011 12.3189 4.96316C12.3328 4.89622 12.3334 4.82719 12.3206 4.76001C12.1725 3.99871 11.8367 3.28639 11.3437 2.68758C10.8507 2.08877 10.2162 1.62238 9.49742 1.33065C8.77868 1.03893 7.99851 0.931094 7.22758 1.01691C6.45664 1.10272 5.71929 1.37948 5.08233 1.82211C4.44536 2.26474 3.92889 2.85925 3.57971 3.55181C3.23053 4.24436 3.05967 5.01308 3.0826 5.78831C3.10553 6.56355 3.32152 7.32083 3.71102 7.99154C4.10052 8.66226 4.65122 9.22522 5.31324 9.62944C3.62843 10.1344 2.15189 11.1701 1.10362 12.5822C1.02118 12.6921 0.985777 12.8302 1.00521 12.9663C1.02464 13.1023 1.09732 13.225 1.20724 13.3074C1.29813 13.3723 1.40644 13.4084 1.51811 13.411C1.59819 13.4091 1.67687 13.3896 1.74852 13.3538C1.82017 13.3179 1.88303 13.2667 1.93259 13.2038C2.60613 12.3009 3.4818 11.5682 4.48946 11.0644C5.49713 10.5606 6.60878 10.2998 7.73538 10.3029C7.87279 10.3029 8.00458 10.2483 8.10174 10.1511C8.1989 10.054 8.25349 9.92224 8.25349 9.78485C8.25349 9.64746 8.1989 9.5157 8.10174 9.41855C8.00458 9.3214 7.87279 9.26682 7.73538 9.26682Z"/>
</mask>
<path d="M31.8791 13.3074C31.7883 13.3723 31.6799 13.4084 31.5683 13.411C31.4882 13.4091 31.4095 13.3896 31.3379 13.3538C31.2662 13.3179 31.2034 13.2667 31.1538 13.2038C30.4803 12.3009 29.6046 11.5682 28.5969 11.0644C27.5893 10.5606 26.4776 10.2998 25.351 10.3029C25.2136 10.3029 25.0818 10.2483 24.9846 10.1511C24.8875 10.054 24.8329 9.92224 24.8329 9.78485C24.8329 9.64746 24.8875 9.5157 24.9846 9.41855C25.0818 9.3214 25.2136 9.26682 25.351 9.26682C26.0389 9.26667 26.7125 9.07093 27.2934 8.70243C27.8742 8.33393 28.3382 7.80787 28.6313 7.18565C28.9244 6.56342 29.0344 5.87069 28.9486 5.18829C28.8628 4.50589 28.5847 3.86196 28.1466 3.33164C27.7086 2.80133 27.1288 2.40649 26.4748 2.19322C25.8208 1.97995 25.1197 1.95703 24.4532 2.12714C23.7867 2.29725 23.1823 2.65338 22.7106 3.15395C22.2388 3.65453 21.9192 4.27893 21.789 4.95427C21.7763 5.02144 21.7504 5.08545 21.7129 5.14264C21.6754 5.19982 21.627 5.24906 21.5705 5.28754C21.5139 5.32602 21.4504 5.35299 21.3834 5.36692C21.3165 5.38084 21.2474 5.38144 21.1802 5.36869C21.1131 5.35593 21.049 5.33007 20.9918 5.29258C20.9347 5.25509 20.8854 5.2067 20.8469 5.15018C20.8084 5.09366 20.7815 5.03011 20.7675 4.96316C20.7536 4.89622 20.753 4.82719 20.7658 4.76001C20.9139 3.99871 21.2497 3.28639 21.7427 2.68758C22.2356 2.08877 22.8702 1.62238 23.589 1.33065C24.3077 1.03893 25.0879 0.931094 25.8588 1.01691C26.6297 1.10272 27.3671 1.37948 28.0041 1.82211C28.641 2.26474 29.1575 2.85925 29.5067 3.55181C29.8559 4.24436 30.0267 5.01308 30.0038 5.78831C29.9809 6.56355 29.7649 7.32083 29.3754 7.99154C28.9859 8.66226 28.4352 9.22522 27.7731 9.62944C29.458 10.1344 30.9345 11.1701 31.9828 12.5822C32.0652 12.6921 32.1006 12.8302 32.0812 12.9663C32.0617 13.1023 31.9891 13.225 31.8791 13.3074ZM24.4702 22.5024C24.5285 22.628 24.5354 22.7714 24.4894 22.9021C24.4435 23.0327 24.3483 23.1402 24.2241 23.2017C24.1567 23.2384 24.0806 23.2563 24.0039 23.2535C23.9074 23.2542 23.8125 23.2278 23.7302 23.1775C23.6478 23.1272 23.5811 23.0548 23.5376 22.9686C22.9013 21.6548 21.9076 20.5469 20.6706 19.7716C19.4336 18.9964 18.0031 18.5852 16.5432 18.5852C15.0832 18.5852 13.6528 18.9964 12.4158 19.7716C11.1788 20.5469 10.1851 21.6548 9.54876 22.9686C9.51977 23.0297 9.47882 23.0843 9.42833 23.1292C9.37784 23.1742 9.31884 23.2086 9.25482 23.2303C9.1908 23.252 9.12307 23.2607 9.05564 23.2558C8.98821 23.2509 8.92245 23.2325 8.86227 23.2017C8.73813 23.1402 8.64291 23.0327 8.59694 22.9021C8.55096 22.7714 8.55786 22.628 8.61617 22.5024C9.14324 21.4226 9.88481 20.4615 10.7956 19.6778C11.7064 18.894 12.7674 18.304 13.9138 17.9437C12.7816 17.3551 11.8798 16.4036 11.3528 15.2416C10.8258 14.0796 10.704 12.7744 11.0071 11.535C11.3101 10.2956 12.0204 9.19373 13.0242 8.40591C14.0279 7.6181 15.2671 7.1899 16.5432 7.1899C17.8193 7.1899 19.0585 7.6181 20.0622 8.40591C21.066 9.19373 21.7763 10.2956 22.0793 11.535C22.3824 12.7744 22.2606 14.0796 21.7336 15.2416C21.2066 16.4036 20.3047 17.3551 19.1726 17.9437C20.319 18.304 21.3799 18.894 22.2908 19.6778C23.2016 20.4615 23.9431 21.4226 24.4702 22.5024ZM16.5432 17.5552C17.4654 17.5552 18.367 17.2818 19.1338 16.7695C19.9006 16.2572 20.4983 15.5291 20.8512 14.6772C21.2041 13.8252 21.2965 12.8878 21.1166 11.9834C20.9366 11.0791 20.4925 10.2483 19.8404 9.59631C19.1883 8.94428 18.3574 8.50025 17.4529 8.32036C16.5484 8.14046 15.6108 8.23279 14.7588 8.58566C13.9067 8.93854 13.1785 9.53611 12.6661 10.3028C12.1537 11.0695 11.8802 11.9709 11.8802 12.893C11.8802 14.1295 12.3715 15.3154 13.246 16.1897C14.1205 17.064 15.3065 17.5552 16.5432 17.5552ZM7.73538 9.26682C7.0475 9.26667 6.37385 9.07093 5.79303 8.70243C5.21221 8.33393 4.74819 7.80787 4.4551 7.18565C4.16202 6.56342 4.05196 5.87069 4.13777 5.18829C4.22358 4.50589 4.50173 3.86196 4.93975 3.33164C5.37776 2.80133 5.95759 2.40649 6.61157 2.19322C7.26554 1.97995 7.96669 1.95703 8.6332 2.12714C9.29972 2.29725 9.9041 2.65338 10.3758 3.15395C10.8475 3.65453 11.1672 4.27893 11.2974 4.95427C11.3231 5.08994 11.4017 5.20982 11.5159 5.28754C11.5724 5.32602 11.636 5.35299 11.703 5.36692C11.7699 5.38084 11.839 5.38144 11.9061 5.36869C11.9733 5.35593 12.0373 5.33007 12.0945 5.29258C12.1517 5.25509 12.201 5.2067 12.2395 5.15018C12.278 5.09366 12.3049 5.03011 12.3189 4.96316C12.3328 4.89622 12.3334 4.82719 12.3206 4.76001C12.1725 3.99871 11.8367 3.28639 11.3437 2.68758C10.8507 2.08877 10.2162 1.62238 9.49742 1.33065C8.77868 1.03893 7.99851 0.931094 7.22758 1.01691C6.45664 1.10272 5.71929 1.37948 5.08233 1.82211C4.44536 2.26474 3.92889 2.85925 3.57971 3.55181C3.23053 4.24436 3.05967 5.01308 3.0826 5.78831C3.10553 6.56355 3.32152 7.32083 3.71102 7.99154C4.10052 8.66226 4.65122 9.22522 5.31324 9.62944C3.62843 10.1344 2.15189 11.1701 1.10362 12.5822C1.02118 12.6921 0.985777 12.8302 1.00521 12.9663C1.02464 13.1023 1.09732 13.225 1.20724 13.3074C1.29813 13.3723 1.40644 13.4084 1.51811 13.411C1.59819 13.4091 1.67687 13.3896 1.74852 13.3538C1.82017 13.3179 1.88303 13.2667 1.93259 13.2038C2.60613 12.3009 3.4818 11.5682 4.48946 11.0644C5.49713 10.5606 6.60878 10.2998 7.73538 10.3029C7.87279 10.3029 8.00458 10.2483 8.10174 10.1511C8.1989 10.054 8.25349 9.92224 8.25349 9.78485C8.25349 9.64746 8.1989 9.5157 8.10174 9.41855C8.00458 9.3214 7.87279 9.26682 7.73538 9.26682Z" fill="#F78117"/>
<path d="M31.8791 13.3074C31.7883 13.3723 31.6799 13.4084 31.5683 13.411C31.4882 13.4091 31.4095 13.3896 31.3379 13.3538C31.2662 13.3179 31.2034 13.2667 31.1538 13.2038C30.4803 12.3009 29.6046 11.5682 28.5969 11.0644C27.5893 10.5606 26.4776 10.2998 25.351 10.3029C25.2136 10.3029 25.0818 10.2483 24.9846 10.1511C24.8875 10.054 24.8329 9.92224 24.8329 9.78485C24.8329 9.64746 24.8875 9.5157 24.9846 9.41855C25.0818 9.3214 25.2136 9.26682 25.351 9.26682C26.0389 9.26667 26.7125 9.07093 27.2934 8.70243C27.8742 8.33393 28.3382 7.80787 28.6313 7.18565C28.9244 6.56342 29.0344 5.87069 28.9486 5.18829C28.8628 4.50589 28.5847 3.86196 28.1466 3.33164C27.7086 2.80133 27.1288 2.40649 26.4748 2.19322C25.8208 1.97995 25.1197 1.95703 24.4532 2.12714C23.7867 2.29725 23.1823 2.65338 22.7106 3.15395C22.2388 3.65453 21.9192 4.27893 21.789 4.95427C21.7763 5.02144 21.7504 5.08545 21.7129 5.14264C21.6754 5.19982 21.627 5.24906 21.5705 5.28754C21.5139 5.32602 21.4504 5.35299 21.3834 5.36692C21.3165 5.38084 21.2474 5.38144 21.1802 5.36869C21.1131 5.35593 21.049 5.33007 20.9918 5.29258C20.9347 5.25509 20.8854 5.2067 20.8469 5.15018C20.8084 5.09366 20.7815 5.03011 20.7675 4.96316C20.7536 4.89622 20.753 4.82719 20.7658 4.76001C20.9139 3.99871 21.2497 3.28639 21.7427 2.68758C22.2356 2.08877 22.8702 1.62238 23.589 1.33065C24.3077 1.03893 25.0879 0.931094 25.8588 1.01691C26.6297 1.10272 27.3671 1.37948 28.0041 1.82211C28.641 2.26474 29.1575 2.85925 29.5067 3.55181C29.8559 4.24436 30.0267 5.01308 30.0038 5.78831C29.9809 6.56355 29.7649 7.32083 29.3754 7.99154C28.9859 8.66226 28.4352 9.22522 27.7731 9.62944C29.458 10.1344 30.9345 11.1701 31.9828 12.5822C32.0652 12.6921 32.1006 12.8302 32.0812 12.9663C32.0617 13.1023 31.9891 13.225 31.8791 13.3074ZM24.4702 22.5024C24.5285 22.628 24.5354 22.7714 24.4894 22.9021C24.4435 23.0327 24.3483 23.1402 24.2241 23.2017C24.1567 23.2384 24.0806 23.2563 24.0039 23.2535C23.9074 23.2542 23.8125 23.2278 23.7302 23.1775C23.6478 23.1272 23.5811 23.0548 23.5376 22.9686C22.9013 21.6548 21.9076 20.5469 20.6706 19.7716C19.4336 18.9964 18.0031 18.5852 16.5432 18.5852C15.0832 18.5852 13.6528 18.9964 12.4158 19.7716C11.1788 20.5469 10.1851 21.6548 9.54876 22.9686C9.51977 23.0297 9.47882 23.0843 9.42833 23.1292C9.37784 23.1742 9.31884 23.2086 9.25482 23.2303C9.1908 23.252 9.12307 23.2607 9.05564 23.2558C8.98821 23.2509 8.92245 23.2325 8.86227 23.2017C8.73813 23.1402 8.64291 23.0327 8.59694 22.9021C8.55096 22.7714 8.55786 22.628 8.61617 22.5024C9.14324 21.4226 9.88481 20.4615 10.7956 19.6778C11.7064 18.894 12.7674 18.304 13.9138 17.9437C12.7816 17.3551 11.8798 16.4036 11.3528 15.2416C10.8258 14.0796 10.704 12.7744 11.0071 11.535C11.3101 10.2956 12.0204 9.19373 13.0242 8.40591C14.0279 7.6181 15.2671 7.1899 16.5432 7.1899C17.8193 7.1899 19.0585 7.6181 20.0622 8.40591C21.066 9.19373 21.7763 10.2956 22.0793 11.535C22.3824 12.7744 22.2606 14.0796 21.7336 15.2416C21.2066 16.4036 20.3047 17.3551 19.1726 17.9437C20.319 18.304 21.3799 18.894 22.2908 19.6778C23.2016 20.4615 23.9431 21.4226 24.4702 22.5024ZM16.5432 17.5552C17.4654 17.5552 18.367 17.2818 19.1338 16.7695C19.9006 16.2572 20.4983 15.5291 20.8512 14.6772C21.2041 13.8252 21.2965 12.8878 21.1166 11.9834C20.9366 11.0791 20.4925 10.2483 19.8404 9.59631C19.1883 8.94428 18.3574 8.50025 17.4529 8.32036C16.5484 8.14046 15.6108 8.23279 14.7588 8.58566C13.9067 8.93854 13.1785 9.53611 12.6661 10.3028C12.1537 11.0695 11.8802 11.9709 11.8802 12.893C11.8802 14.1295 12.3715 15.3154 13.246 16.1897C14.1205 17.064 15.3065 17.5552 16.5432 17.5552ZM7.73538 9.26682C7.0475 9.26667 6.37385 9.07093 5.79303 8.70243C5.21221 8.33393 4.74819 7.80787 4.4551 7.18565C4.16202 6.56342 4.05196 5.87069 4.13777 5.18829C4.22358 4.50589 4.50173 3.86196 4.93975 3.33164C5.37776 2.80133 5.95759 2.40649 6.61157 2.19322C7.26554 1.97995 7.96669 1.95703 8.6332 2.12714C9.29972 2.29725 9.9041 2.65338 10.3758 3.15395C10.8475 3.65453 11.1672 4.27893 11.2974 4.95427C11.3231 5.08994 11.4017 5.20982 11.5159 5.28754C11.5724 5.32602 11.636 5.35299 11.703 5.36692C11.7699 5.38084 11.839 5.38144 11.9061 5.36869C11.9733 5.35593 12.0373 5.33007 12.0945 5.29258C12.1517 5.25509 12.201 5.2067 12.2395 5.15018C12.278 5.09366 12.3049 5.03011 12.3189 4.96316C12.3328 4.89622 12.3334 4.82719 12.3206 4.76001C12.1725 3.99871 11.8367 3.28639 11.3437 2.68758C10.8507 2.08877 10.2162 1.62238 9.49742 1.33065C8.77868 1.03893 7.99851 0.931094 7.22758 1.01691C6.45664 1.10272 5.71929 1.37948 5.08233 1.82211C4.44536 2.26474 3.92889 2.85925 3.57971 3.55181C3.23053 4.24436 3.05967 5.01308 3.0826 5.78831C3.10553 6.56355 3.32152 7.32083 3.71102 7.99154C4.10052 8.66226 4.65122 9.22522 5.31324 9.62944C3.62843 10.1344 2.15189 11.1701 1.10362 12.5822C1.02118 12.6921 0.985777 12.8302 1.00521 12.9663C1.02464 13.1023 1.09732 13.225 1.20724 13.3074C1.29813 13.3723 1.40644 13.4084 1.51811 13.411C1.59819 13.4091 1.67687 13.3896 1.74852 13.3538C1.82017 13.3179 1.88303 13.2667 1.93259 13.2038C2.60613 12.3009 3.4818 11.5682 4.48946 11.0644C5.49713 10.5606 6.60878 10.2998 7.73538 10.3029C7.87279 10.3029 8.00458 10.2483 8.10174 10.1511C8.1989 10.054 8.25349 9.92224 8.25349 9.78485C8.25349 9.64746 8.1989 9.5157 8.10174 9.41855C8.00458 9.3214 7.87279 9.26682 7.73538 9.26682Z" stroke="#F78117" mask="url(#path-1-outside-1_1_558)"/>
</svg>
