<svg width="32" height="33" viewBox="0 0 32 33" fill="none" xmlns="http://www.w3.org/2000/svg">
<path d="M25.7514 27.3255C25.9445 27.3624 26.0342 27.3781 26.1219 27.3975C26.6643 27.513 27.0302 27.8992 27.0459 28.4536C27.0699 29.2713 27.0717 30.0908 27.0468 30.9085C27.0274 31.5608 26.5543 31.9941 25.8983 31.996C23.5118 32.0006 21.1262 32.0015 18.7397 31.996C18.0744 31.9941 17.6097 31.5275 17.6014 30.8623C17.5912 30.0899 17.5949 29.3175 17.6004 28.5451C17.6051 27.9889 17.8767 27.6027 18.4135 27.4373C18.6038 27.3781 18.6325 27.2857 18.6316 27.1176C18.626 26.2759 18.626 25.4342 18.6297 24.5925C18.6408 21.9297 20.5524 19.8499 23.206 19.5866C23.4157 19.5653 23.6513 19.4563 23.8084 19.314C24.494 18.6968 25.137 18.0334 25.8327 17.4292C26.1182 17.1806 26.5007 17.0448 26.8334 16.848C26.9405 16.7843 27.044 16.7011 27.1189 16.6032C27.1863 16.5145 27.2048 16.3907 27.2575 16.289C27.5919 15.6533 27.6409 15.0325 27.4626 14.3044C27.0071 12.4454 28.0225 10.4728 29.7475 9.64313C30.3665 9.34562 31.0271 9.66345 31.1491 10.3361C31.6693 13.2086 31.8374 16.1005 31.5907 19.0119C31.5482 19.5173 31.4845 20.0199 31.4392 20.5253C31.3727 21.27 31.0595 21.8909 30.5282 22.411C29.0952 23.8145 27.6612 25.217 26.2383 26.6316C26.0545 26.8145 25.9335 27.0612 25.7514 27.3245V27.3255ZM28.1648 16.9894C28.806 17.37 29.0869 17.9244 29.0028 18.6488C28.9464 19.1329 28.7321 19.5459 28.4078 19.909C27.6778 20.7258 26.9544 21.5472 26.2282 22.3667C26.0526 22.5653 25.8845 22.7723 25.696 22.9571C25.4659 23.1835 25.1767 23.1899 24.9485 22.9968C24.7148 22.7991 24.6861 22.4905 24.8839 22.2226C24.9587 22.1209 25.0483 22.0295 25.1324 21.9352C25.9196 21.0464 26.7114 20.1612 27.4912 19.266C27.639 19.0959 27.7813 18.8991 27.8571 18.6903C28.0336 18.2062 27.7462 17.8394 27.2353 17.9179C27.0015 17.954 26.7521 18.0842 26.5747 18.2441C25.9224 18.828 25.2848 19.4304 24.6667 20.0504C24.262 20.456 23.8028 20.662 23.2319 20.7101C21.5604 20.8496 20.0997 22.0738 19.8502 23.7277C19.671 24.9112 19.7394 26.1317 19.6959 27.356H24.7231C24.7517 26.6214 25.1573 26.1142 25.6526 25.6356C27.0219 24.3153 28.3699 22.9728 29.7299 21.6442C30.045 21.3365 30.2861 20.9854 30.3194 20.541C30.421 19.2087 30.5513 17.8763 30.5836 16.5413C30.6308 14.6038 30.4404 12.6792 30.0912 10.7269C29.9683 10.799 29.8676 10.8479 29.778 10.9117C28.6859 11.6776 28.1999 13.0635 28.6009 14.3682C28.794 14.9964 28.7783 15.5877 28.5002 16.1809C28.3791 16.4396 28.2803 16.7085 28.1648 16.9894ZM25.9316 28.5109H18.7313V30.8632H25.9316V28.5109Z" fill="#F78117" stroke="#F78117" stroke-width="0.3"/>
<path d="M6.94737 27.314C6.76073 27.0507 6.63045 26.7975 6.43735 26.6063C5.05606 25.2333 3.66738 23.8668 2.26854 22.5114C1.68091 21.9422 1.3483 21.2779 1.24851 20.4584C0.841053 17.1036 0.932523 13.7663 1.53678 10.442C1.6883 9.61135 2.33044 9.30645 3.07329 9.70744C4.84356 10.6628 5.72407 12.6474 5.18911 14.5729C5.05606 15.0515 5.05976 15.4719 5.2852 15.9024C5.31754 15.9634 5.34341 16.0281 5.36373 16.0937C5.50048 16.5326 5.68988 16.8883 6.21838 16.989C6.45583 17.0343 6.6785 17.244 6.86975 17.4205C7.54885 18.0432 8.20392 18.6937 8.88856 19.3109C9.04655 19.4531 9.28031 19.5649 9.49005 19.5862C12.1242 19.8495 14.0386 21.9164 14.07 24.5625C14.0802 25.4153 14.0765 26.269 14.07 27.1218C14.0691 27.2937 14.1051 27.3805 14.2927 27.4378C14.8258 27.6023 15.0974 27.9885 15.1011 28.5484C15.1076 29.3088 15.1085 30.0701 15.1011 30.8305C15.0947 31.5373 14.6345 31.9947 13.9231 31.9965C11.5606 32.0012 9.19808 32.0002 6.83465 31.9965C6.10935 31.9956 5.6557 31.5383 5.64738 30.8037C5.63907 30.0895 5.64369 29.3744 5.64554 28.6593C5.64831 27.9007 5.97446 27.5117 6.7173 27.375C6.76073 27.3667 6.80323 27.3519 6.94737 27.314ZM12.9659 27.3593C12.9659 26.4797 12.9483 25.6389 12.9696 24.7991C13.0195 22.795 11.6299 20.8141 9.29879 20.6885C8.83867 20.6635 8.46725 20.4649 8.13832 20.1452C7.47771 19.5021 6.81247 18.8627 6.12783 18.2456C5.95044 18.0857 5.70097 17.9536 5.46722 17.9176C4.95535 17.8381 4.66986 18.2021 4.84356 18.6881C4.9147 18.8877 5.0459 19.0762 5.18634 19.2379C5.96614 20.1332 6.75703 21.0183 7.54423 21.9071C7.62092 21.9931 7.70038 22.0771 7.77244 22.1668C8.01267 22.4633 8.00435 22.7821 7.75489 22.9955C7.51004 23.2053 7.21716 23.1748 6.9566 22.9124C6.91595 22.8717 6.87899 22.8274 6.84019 22.7839C5.98462 21.8175 5.12721 20.8529 4.27441 19.8837C3.40129 18.8914 3.49183 17.8039 4.52757 16.9696C4.43518 16.7442 4.35387 16.5049 4.24207 16.2803C3.92331 15.6373 3.92239 14.9979 4.09886 14.3022C4.2199 13.8273 4.23191 13.2905 4.1506 12.8054C3.9963 11.8889 3.45488 11.2061 2.62056 10.7256C2.59931 10.8097 2.58637 10.8522 2.57898 10.8947C2.03386 14.0278 1.96364 17.171 2.34615 20.329C2.41544 20.901 2.65567 21.3435 3.06313 21.7371C4.31506 22.9466 5.54667 24.1754 6.79399 25.3895C7.36591 25.9457 7.97479 26.4714 7.97294 27.3593H12.965H12.9659ZM13.9822 28.505H6.77459V30.8693H13.9822V28.505Z" fill="#F78117" stroke="#F78117" stroke-width="0.3"/>
<path d="M9.25168 4.69498C9.25168 4.13045 9.24245 3.565 9.25446 3.00048C9.26554 2.45628 9.46419 2.21328 9.98252 2.04327C12.2351 1.3069 14.5449 0.938244 16.9176 1.00846C18.9216 1.0676 20.8758 1.42608 22.7782 2.05991C23.1819 2.1948 23.4314 2.45905 23.4415 2.88868C23.5062 5.61707 23.4037 8.32421 22.5278 10.951C21.5438 13.9002 19.5638 15.9088 16.7707 17.1746C16.4658 17.3123 16.1803 17.2827 15.8745 17.146C12.4374 15.6122 10.4722 12.93 9.70904 9.29527C9.39028 7.77724 9.27016 6.24073 9.25076 4.69406L9.25168 4.69498ZM22.3494 4.85482C22.3494 4.37068 22.3347 3.88561 22.355 3.40239C22.3661 3.14369 22.2626 3.05129 22.027 2.97922C20.533 2.52188 19.0094 2.241 17.4507 2.14306C15.1002 1.99523 12.8089 2.31399 10.5692 3.02635C10.4759 3.05591 10.3632 3.21113 10.3613 3.31C10.3161 5.36576 10.4057 7.40951 10.8797 9.4237C11.5939 12.4598 13.2745 14.7179 16.1369 16.0391C16.2524 16.0927 16.4335 16.1047 16.5443 16.052C18.8043 14.9803 20.4618 13.344 21.3442 10.9621C22.075 8.9876 22.2959 6.93646 22.3494 4.85482Z" fill="#F78117" stroke="#F78117" stroke-width="0.3"/>
<path d="M15.2942 9.36025C16.026 8.50006 16.7347 7.66759 17.4424 6.83605C17.8083 6.40549 18.1705 5.97309 18.541 5.54623C18.8034 5.2441 19.1388 5.19236 19.3854 5.40302C19.6423 5.62292 19.6478 5.94352 19.3808 6.25951C18.2268 7.62324 17.0728 8.98605 15.9105 10.3424C15.5215 10.7961 15.0679 10.7914 14.678 10.3424C14.2243 9.82129 13.7753 9.29465 13.3299 8.76616C13.0574 8.44278 13.0565 8.13695 13.3105 7.91059C13.5674 7.68238 13.8945 7.73412 14.1781 8.05934C14.5412 8.47512 14.8988 8.89736 15.2952 9.36025H15.2942Z" fill="#F78117" stroke="#F78117" stroke-width="0.3"/>
</svg>
